<?xml version="1.0" encoding="UTF-8" standalone="no"?><!-- Generator: Gravit.io --><svg xmlns="http://www.w3.org/2000/svg" xmlns:xlink="http://www.w3.org/1999/xlink" style="isolation:isolate" viewBox="0 0 512 256" width="512pt" height="256pt"><defs><clipPath id="_clipPath_rnTdUeRneoaI2qS6R3PTnhd6Qz2IMGQx"><rect width="512" height="256"/></clipPath></defs><g clip-path="url(#_clipPath_rnTdUeRneoaI2qS6R3PTnhd6Qz2IMGQx)"><path d=" M 12.604 90.34 L 17.403 95.137 L 12.652 99.895 L 17.907 105.151 L 27.926 95.137 L 17.864 85.082 L 12.604 90.34 Z " fill-rule="evenodd" fill="rgb(255,255,255)"/><path d=" M 27.379 90.34 L 32.175 95.137 L 27.422 99.895 L 32.682 105.151 L 42.695 95.137 L 32.636 85.082 L 27.379 90.34 Z " fill-rule="evenodd" fill="rgb(255,255,255)"/><path d=" M 48.707 72.397 C 48.707 74.259 47.194 75.764 45.337 75.764 C 43.475 75.764 41.97 74.259 41.97 72.397 C 41.97 70.537 43.475 69.025 45.337 69.025 C 47.194 69.025 48.707 70.537 48.707 72.397 Z " fill="rgb(255,255,255)"/><path d=" M 58.068 72.397 C 58.068 74.259 56.557 75.764 54.694 75.764 C 52.837 75.764 51.329 74.259 51.329 72.397 C 51.329 70.537 52.837 69.025 54.694 69.025 C 56.557 69.025 58.068 70.537 58.068 72.397 Z " fill="rgb(255,255,255)"/><path d=" M 58.068 81.57 C 58.068 83.434 56.557 84.939 54.694 84.939 C 52.837 84.939 51.329 83.434 51.329 81.57 C 51.329 79.704 52.837 78.197 54.694 78.197 C 56.557 78.197 58.068 79.704 58.068 81.57 Z " fill="rgb(255,255,255)"/><path d=" M 48.707 81.57 C 48.707 83.434 47.194 84.939 45.337 84.939 C 43.475 84.939 41.97 83.434 41.97 81.57 C 41.97 79.704 43.475 78.197 45.337 78.197 C 47.194 78.197 48.707 79.704 48.707 81.57 Z " fill="rgb(255,255,255)"/><path d=" M 33.617 58.492 L 30.291 61.817 L 26.957 58.492 L 23.44 62.011 L 26.77 65.336 L 23.44 68.667 L 26.957 72.185 L 30.291 68.855 L 33.617 72.185 L 37.135 68.667 L 33.807 65.336 L 37.135 62.011 L 33.617 58.492 Z " fill="rgb(255,255,255)"/><path d=" M 59.201 94.989 L 83.978 94.989 L 83.978 98.867 L 63.62 98.867 L 63.62 109.952 L 82.115 109.952 L 82.115 113.681 L 63.62 113.681 L 63.62 125.994 L 84.568 125.994 L 84.568 130.065 L 59.201 130.065 L 59.201 94.989 Z " fill="rgb(255,255,255)"/><path d=" M 87.016 121.824 L 91.087 121.824 C 91.624 126.24 94.569 127.465 98.346 127.465 C 102.517 127.465 104.234 125.65 104.234 123.294 C 104.234 120.451 102.27 119.717 97.608 118.732 C 92.605 117.705 88.142 116.672 88.142 111.131 C 88.142 106.91 91.38 104.162 97.268 104.162 C 103.547 104.162 106.636 107.156 107.223 112.109 L 103.152 112.109 C 102.762 108.775 100.946 107.303 97.168 107.303 C 93.539 107.303 92.067 108.923 92.067 110.933 C 92.067 113.681 94.52 114.222 98.888 115.103 C 103.986 116.133 108.253 117.262 108.253 123.1 C 108.253 128.201 104.084 130.802 98.249 130.802 C 91.282 130.802 87.407 127.514 87.016 121.824 Z " fill="rgb(255,255,255)"/><path d=" M 111.144 117.411 C 111.144 110.052 115.852 104.068 123.41 104.068 C 129.394 104.068 133.365 107.499 134.25 112.895 L 130.225 112.895 C 129.639 109.462 127.234 107.351 123.41 107.351 C 118.012 107.351 115.217 111.816 115.217 117.411 C 115.217 123 118.012 127.416 123.41 127.416 C 127.529 127.416 129.983 125.061 130.326 121.138 L 134.25 121.138 C 133.708 127.22 129.736 130.752 123.41 130.752 C 115.852 130.752 111.144 124.767 111.144 117.411 Z " fill="rgb(255,255,255)"/><path d=" M 157.007 117.411 C 157.007 111.816 154.26 107.351 148.864 107.351 C 143.466 107.351 140.671 111.816 140.671 117.411 C 140.671 123 143.466 127.416 148.864 127.416 C 154.26 127.416 157.007 123 157.007 117.411 Z  M 136.6 117.411 C 136.6 110.052 141.307 104.068 148.864 104.068 C 156.468 104.068 161.078 110.052 161.078 117.411 C 161.078 124.767 156.468 130.752 148.864 130.752 C 141.307 130.752 136.6 124.767 136.6 117.411 Z " fill="rgb(255,255,255)"/><path d=" M 165.192 94.989 L 169.167 94.989 L 169.167 130.064 L 165.192 130.064 L 165.192 94.989 Z " fill="rgb(255,255,255)"/><path d=" M 190.358 120.695 L 190.358 116.378 C 189.033 117.213 186.728 117.852 184.57 118.242 C 180.595 118.978 177.406 119.665 177.406 123.394 C 177.406 126.778 180.056 127.514 182.657 127.514 C 187.954 127.514 190.358 123.641 190.358 120.695 Z  M 190.26 126.533 L 190.213 126.533 C 188.691 128.497 186.089 130.559 181.773 130.559 C 176.967 130.559 173.187 128.298 173.187 123.493 C 173.187 117.508 177.897 116.28 184.228 115.3 C 187.808 114.761 190.31 114.417 190.31 111.672 C 190.31 108.825 188.246 107.207 184.619 107.207 C 180.498 107.207 178.437 108.971 178.291 112.797 L 174.461 112.797 C 174.612 107.893 177.849 104.212 184.57 104.212 C 189.967 104.212 193.94 106.224 193.94 112.257 L 193.94 124.327 C 193.94 126.386 194.43 127.514 196.639 127.024 L 196.785 127.024 L 196.785 129.918 C 196.295 130.114 195.655 130.311 194.626 130.311 C 192.028 130.311 190.652 129.134 190.26 126.533 Z " fill="rgb(255,255,255)"/><path d=" M 225.524 117.508 C 225.524 111.621 222.679 107.499 217.428 107.499 C 212.622 107.499 210.169 111.816 210.169 117.508 C 210.169 123.248 212.622 127.465 217.48 127.465 C 223.125 127.465 225.524 123.248 225.524 117.508 Z  M 206.098 117.46 C 206.098 109.019 210.956 104.117 217.237 104.117 C 220.816 104.117 223.565 105.88 225.182 108.286 L 225.28 108.286 L 225.28 94.99 L 229.254 94.99 L 229.254 130.065 L 225.28 130.065 L 225.28 126.975 L 225.182 126.975 C 223.27 129.429 220.915 130.802 217.335 130.802 C 210.416 130.802 206.098 125.603 206.098 117.46 Z " fill="rgb(255,255,255)"/><path d=" M 253.627 117.411 C 253.627 111.816 250.883 107.351 245.487 107.351 C 240.086 107.351 237.291 111.816 237.291 117.411 C 237.291 123 240.086 127.416 245.487 127.416 C 250.883 127.416 253.627 123 253.627 117.411 Z  M 233.223 117.411 C 233.223 110.052 237.928 104.068 245.487 104.068 C 253.088 104.068 257.7 110.052 257.7 117.411 C 257.7 124.767 253.088 130.752 245.487 130.752 C 237.928 130.752 233.223 124.767 233.223 117.411 Z " fill="rgb(255,255,255)"/><path d=" M 269.465 94.989 L 279.472 94.989 L 284.424 112.601 C 285.65 117.016 286.634 122.071 286.634 122.071 L 286.733 122.071 C 286.733 122.071 287.664 117.016 288.889 112.601 L 293.845 94.989 L 304 94.989 L 304 130.065 L 297.378 130.065 L 297.378 109.952 C 297.378 107.106 297.673 102.692 297.673 102.692 L 297.575 102.692 C 297.575 102.692 296.789 106.814 296.054 109.363 L 290.019 130.065 L 283.2 130.065 L 277.311 109.363 C 276.578 106.814 275.794 102.692 275.794 102.692 L 275.695 102.692 C 275.695 102.692 275.988 107.106 275.988 109.952 L 275.988 130.065 L 269.465 130.065 L 269.465 94.989 Z " fill="rgb(255,255,255)"/><path d=" M 323.961 121.186 L 323.961 117.411 C 322.782 118.095 320.967 118.487 319.298 118.88 C 315.816 119.666 314.1 120.451 314.1 122.807 C 314.1 125.159 315.671 125.994 318.024 125.994 C 321.852 125.994 323.961 123.641 323.961 121.186 Z  M 323.911 127.271 L 323.811 127.271 C 322.536 129.184 320.725 130.655 316.404 130.655 C 311.254 130.655 307.622 127.957 307.622 122.953 C 307.622 117.411 312.136 115.643 317.727 114.859 C 321.9 114.271 323.811 113.928 323.811 112.014 C 323.811 110.197 322.391 109.018 319.594 109.018 C 316.454 109.018 314.93 110.149 314.735 112.55 L 308.8 112.55 C 308.998 108.137 312.284 104.261 319.642 104.261 C 327.196 104.261 330.241 107.649 330.241 113.536 L 330.241 126.338 C 330.241 128.249 330.534 129.381 331.123 129.821 L 331.123 130.065 L 324.695 130.065 C 324.304 129.573 324.056 128.398 323.911 127.271 Z " fill="rgb(255,255,255)"/><path d=" M 340.878 108.923 L 341.024 108.923 C 342.546 106.077 344.262 104.603 347.205 104.603 C 347.941 104.603 348.385 104.652 348.776 104.803 L 348.776 110.639 L 348.628 110.639 C 344.262 110.198 341.123 112.502 341.123 117.801 L 341.123 130.065 L 334.449 130.065 L 334.449 104.9 L 340.878 104.9 L 340.878 108.923 Z " fill="rgb(255,255,255)"/><path d=" M 348.38 135.806 C 350.295 134.825 351.914 133.108 351.914 130.065 L 348.329 130.065 L 348.329 122.953 L 355.495 122.953 L 355.495 129.674 C 355.495 134.678 352.158 137.523 348.38 138.209 L 348.38 135.806 Z " fill="rgb(255,255,255)"/><path d=" M 57.095 171.507 C 57.095 161.105 63.571 153.159 73.922 153.159 C 82.553 153.159 87.657 158.312 88.394 164.979 L 81.331 164.979 C 80.692 161.449 78.041 159.145 73.922 159.145 C 67.445 159.145 64.355 164.542 64.355 171.507 C 64.355 178.67 68.084 183.82 73.967 183.82 C 78.138 183.82 81.084 181.317 81.526 177.639 L 88.492 177.639 C 88.295 180.728 86.973 183.722 84.615 185.931 C 82.21 188.187 78.825 189.659 73.967 189.659 C 64.111 189.659 57.095 182.055 57.095 171.507 Z " fill="rgb(255,255,255)"/><path d=" M 91.622 163.754 L 98.293 163.754 L 98.293 188.922 L 91.622 188.922 L 91.622 163.754 Z  M 91.622 153.845 L 98.293 153.845 L 98.293 159.831 L 91.622 159.831 L 91.622 153.845 Z " fill="rgb(255,255,255)"/><path d=" M 108.054 173.617 L 119.242 173.617 C 119.044 170.428 116.937 168.219 113.896 168.219 C 110.362 168.219 108.645 170.33 108.054 173.617 Z  M 110.164 154.239 L 117.329 154.239 L 122.036 160.421 L 116.25 160.421 L 113.896 157.035 L 113.797 157.035 L 111.392 160.421 L 105.553 160.421 L 110.164 154.239 Z  M 101.384 176.313 C 101.384 168.859 106.436 163.069 113.797 163.069 C 121.891 163.069 126.207 169.252 126.207 178.229 L 107.956 178.229 C 108.451 182.102 110.603 184.507 114.387 184.507 C 116.982 184.507 118.503 183.333 119.242 181.417 L 125.813 181.417 C 124.881 185.881 120.91 189.659 114.434 189.659 C 106.094 189.659 101.384 183.82 101.384 176.313 Z " fill="rgb(255,255,255)"/><path d=" M 135.818 167.191 L 135.962 167.191 C 137.679 164.493 139.986 163.069 143.421 163.069 C 148.621 163.069 152.106 166.993 152.106 172.488 L 152.106 188.922 L 145.433 188.922 L 145.433 173.47 C 145.433 170.772 143.861 168.859 141.066 168.859 C 138.122 168.859 135.962 171.211 135.962 174.647 L 135.962 188.922 L 129.291 188.922 L 129.291 163.754 L 135.818 163.754 L 135.818 167.191 Z " fill="rgb(255,255,255)"/><path d=" M 154.992 176.364 C 154.992 168.859 159.899 163.069 167.549 163.069 C 174.075 163.069 178.098 166.849 178.978 172.291 L 172.458 172.291 C 172.013 170.085 170.298 168.417 167.842 168.417 C 163.821 168.417 161.761 171.507 161.761 176.364 C 161.761 181.122 163.675 184.312 167.747 184.312 C 170.445 184.312 172.358 182.887 172.799 180.042 L 179.224 180.042 C 178.784 185.39 174.613 189.659 167.893 189.659 C 159.943 189.659 154.992 183.868 154.992 176.364 Z " fill="rgb(255,255,255)"/><path d=" M 182.113 163.754 L 188.784 163.754 L 188.784 188.922 L 182.113 188.922 L 182.113 163.754 Z  M 182.113 153.845 L 188.784 153.845 L 188.784 159.831 L 182.113 159.831 L 182.113 153.845 Z " fill="rgb(255,255,255)"/><path d=" M 208.212 180.042 L 208.212 176.265 C 207.032 176.953 205.219 177.346 203.55 177.737 C 200.066 178.525 198.35 179.308 198.35 181.662 C 198.35 184.017 199.921 184.85 202.272 184.85 C 206.102 184.85 208.212 182.494 208.212 180.042 Z  M 208.161 186.128 L 208.062 186.128 C 206.785 188.04 204.973 189.512 200.655 189.512 C 195.505 189.512 191.874 186.815 191.874 181.809 C 191.874 176.265 196.389 174.5 201.979 173.714 C 206.15 173.124 208.062 172.781 208.062 170.867 C 208.062 169.054 206.64 167.876 203.843 167.876 C 200.703 167.876 199.184 169.005 198.988 171.409 L 193.051 171.409 C 193.248 166.994 196.535 163.12 203.892 163.12 C 211.45 163.12 214.491 166.502 214.491 172.39 L 214.491 185.191 C 214.491 187.107 214.784 188.233 215.372 188.677 L 215.372 188.921 L 208.948 188.921 C 208.555 188.431 208.311 187.255 208.161 186.128 Z " fill="rgb(255,255,255)"/><path d=" M 239.501 166.796 C 241.808 165.426 242.445 163.902 242.445 162.237 C 242.445 160.518 241.17 159.44 239.697 159.44 C 238.126 159.44 236.951 160.616 236.951 162.286 C 236.951 163.853 238.031 165.377 239.501 166.796 Z  M 243.231 182.103 L 236.803 173.714 C 233.813 175.53 232.779 177.492 232.779 179.699 C 232.779 182.349 234.891 184.164 237.638 184.164 C 239.749 184.164 241.664 183.429 243.231 182.103 Z  M 225.716 179.895 C 225.716 174.891 228.905 171.754 233.468 169.447 C 231.455 166.993 230.527 165.033 230.527 162.186 C 230.527 157.623 234.154 154.092 239.601 154.092 C 244.9 154.092 248.773 157.33 248.773 162.135 C 248.773 166.453 246.27 168.613 242.496 170.575 L 247.153 176.61 C 247.842 174.843 248.33 172.83 248.528 170.916 L 254.464 170.916 C 254.171 174.843 253.042 178.621 251.128 181.761 L 256.672 188.921 L 248.528 188.921 L 246.715 186.617 C 244.112 188.529 240.923 189.659 237.391 189.659 C 229.69 189.659 225.716 185.39 225.716 179.895 Z " fill="rgb(255,255,255)"/><path d=" M 266.08 153.845 L 294.29 153.845 L 294.29 159.831 L 283.741 159.831 L 283.741 188.921 L 276.627 188.921 L 276.627 159.831 L 266.08 159.831 L 266.08 153.845 Z " fill="rgb(255,255,255)"/><path d=" M 297.13 173.617 L 308.314 173.617 C 308.118 170.428 306.008 168.219 302.968 168.219 C 299.436 168.219 297.718 170.33 297.13 173.617 Z  M 290.456 176.313 C 290.456 168.859 295.51 163.069 302.869 163.069 C 310.963 163.069 315.28 169.252 315.28 178.229 L 297.031 178.229 C 297.521 182.102 299.678 184.507 303.457 184.507 C 306.056 184.507 307.577 183.333 308.314 181.417 L 314.887 181.417 C 313.954 185.881 309.982 189.659 303.506 189.659 C 295.167 189.659 290.456 183.82 290.456 176.313 Z " fill="rgb(255,255,255)"/><path d=" M 317.137 176.364 C 317.137 168.859 322.047 163.069 329.696 163.069 C 336.224 163.069 340.245 166.849 341.127 172.291 L 334.603 172.291 C 334.16 170.085 332.441 168.417 329.989 168.417 C 325.968 168.417 323.907 171.507 323.907 176.364 C 323.907 181.122 325.823 184.312 329.892 184.312 C 332.592 184.312 334.505 182.887 334.946 180.042 L 341.372 180.042 C 340.93 185.39 336.762 189.659 330.042 189.659 C 322.092 189.659 317.137 183.868 317.137 176.364 Z " fill="rgb(255,255,255)"/><path d=" M 350.787 167.191 L 350.935 167.191 C 352.651 164.493 354.958 163.069 358.393 163.069 C 363.592 163.069 367.075 166.993 367.075 172.488 L 367.075 188.922 L 360.404 188.922 L 360.404 173.47 C 360.404 170.772 358.834 168.859 356.038 168.859 C 353.093 168.859 350.935 171.211 350.935 174.647 L 350.935 188.922 L 344.263 188.922 L 344.263 163.754 L 350.787 163.754 L 350.787 167.191 Z " fill="rgb(255,255,255)"/><path d=" M 389.486 176.364 C 389.486 171.458 387.179 168.125 383.109 168.125 C 378.988 168.125 376.733 171.458 376.733 176.364 C 376.733 181.269 378.988 184.557 383.109 184.557 C 387.179 184.557 389.486 181.269 389.486 176.364 Z  M 369.963 176.364 C 369.963 168.859 375.309 163.069 383.109 163.069 C 390.91 163.069 396.257 168.859 396.257 176.364 C 396.257 183.868 390.91 189.659 383.109 189.659 C 375.309 189.659 369.963 183.868 369.963 176.364 Z " fill="rgb(255,255,255)"/><path d=" M 399.437 153.845 L 406.108 153.845 L 406.108 188.921 L 399.437 188.921 L 399.437 153.845 Z " fill="rgb(255,255,255)"/><path d=" M 428.822 176.364 C 428.822 171.458 426.517 168.125 422.444 168.125 C 418.326 168.125 416.067 171.458 416.067 176.364 C 416.067 181.269 418.326 184.557 422.444 184.557 C 426.517 184.557 428.822 181.269 428.822 176.364 Z  M 409.295 176.364 C 409.295 168.859 414.643 163.069 422.444 163.069 C 430.246 163.069 435.593 168.859 435.593 176.364 C 435.593 183.868 430.246 189.659 422.444 189.659 C 414.643 189.659 409.295 183.868 409.295 176.364 Z " fill="rgb(255,255,255)"/><path d=" M 455.601 175.236 C 455.601 171.556 453.634 168.416 449.613 168.416 C 446.232 168.416 443.976 171.066 443.976 175.286 C 443.976 179.552 446.232 182.056 449.664 182.056 C 453.881 182.056 455.601 178.962 455.601 175.236 Z  M 437.989 189.659 L 444.613 189.659 C 445.147 191.228 446.571 192.455 449.664 192.455 C 453.441 192.455 455.255 190.641 455.255 187.206 L 455.255 184.457 L 455.112 184.457 C 453.634 186.128 451.727 187.404 448.535 187.404 C 442.939 187.404 437.45 182.983 437.45 175.381 C 437.45 167.876 441.966 163.069 448.34 163.069 C 451.482 163.069 453.783 164.293 455.308 166.407 L 455.404 166.407 L 455.404 163.755 L 461.832 163.755 L 461.832 187.008 C 461.832 190.543 460.701 192.945 458.839 194.661 C 456.732 196.625 453.49 197.508 449.762 197.508 C 442.892 197.508 438.674 194.562 437.989 189.659 Z " fill="rgb(255,255,255)"/><path d=" M 466.142 163.754 L 472.816 163.754 L 472.816 188.922 L 466.142 188.922 L 466.142 163.754 Z  M 466.142 153.845 L 472.816 153.845 L 472.816 159.831 L 466.142 159.831 L 466.142 153.845 Z " fill="rgb(255,255,255)"/><path d=" M 492.237 180.042 L 492.237 176.265 C 491.058 176.953 489.242 177.346 487.576 177.737 C 484.094 178.525 482.374 179.308 482.374 181.662 C 482.374 184.017 483.945 184.85 486.301 184.85 C 490.129 184.85 492.237 182.494 492.237 180.042 Z  M 492.188 186.128 L 492.087 186.128 C 490.813 188.04 489.001 189.512 484.684 189.512 C 479.53 189.512 475.899 186.815 475.899 181.809 C 475.899 176.265 480.415 174.5 486.007 173.714 C 490.177 173.124 492.087 172.781 492.087 170.867 C 492.087 169.054 490.665 167.876 487.868 167.876 C 484.732 167.876 483.21 169.005 483.014 171.409 L 477.08 171.409 C 477.275 166.994 480.559 163.12 487.921 163.12 C 495.474 163.12 498.518 166.502 498.518 172.39 L 498.518 185.191 C 498.518 187.107 498.81 188.233 499.396 188.677 L 499.396 188.921 L 492.974 188.921 C 492.581 188.431 492.334 187.255 492.188 186.128 Z " fill="rgb(255,255,255)"/></g></svg>