<?xml version="1.0" encoding="UTF-8" standalone="no"?><!-- Generator: Gravit.io --><svg xmlns="http://www.w3.org/2000/svg" xmlns:xlink="http://www.w3.org/1999/xlink" style="isolation:isolate" viewBox="0 0 1920 1280" width="1920pt" height="1280pt"><defs><clipPath id="_clipPath_eDfa7VdYok5r21fCCJfVhmI3OHnaCOop"><rect width="1920" height="1280"/></clipPath></defs><g clip-path="url(#_clipPath_eDfa7VdYok5r21fCCJfVhmI3OHnaCOop)"><linearGradient id="_lgradient_1" x1="0.1464466094067262" y1="0.14644660940672627" x2="0.8535533905932737" y2="0.8535533905932737" gradientTransform="matrix(1700.26,0,0,1121.242,109.87,79.379)" gradientUnits="userSpaceOnUse"><stop offset="0%" stop-opacity="1" style="stop-color:rgb(2,204,255)"/><stop offset="100%" stop-opacity="1" style="stop-color:rgb(4,57,104)"/><stop offset="100%" stop-opacity="1" style="stop-color:rgb(4,57,104)"/></linearGradient><path d=" M 1495.517 1174.048 C 2045.017 1050.992 1843.582 151.467 1133.113 87.458 C 422.643 23.449 104.162 353.026 109.947 607.443 C 114.41 803.671 214.813 942.005 451.154 966.548 C 857.396 1004.345 989.897 1287.278 1495.517 1174.048 Z " fill="url(#_lgradient_1)"/><clipPath id="_clipPath_Z6ysiSmebS44dYwsRT7zHMo0A8EWyJp0"><path d=" M 1495.517 1174.048 C 2045.017 1050.992 1843.582 151.467 1133.113 87.458 C 422.643 23.449 104.162 353.026 109.947 607.443 C 114.41 803.671 214.813 942.005 451.154 966.548 C 857.396 1004.345 989.897 1287.278 1495.517 1174.048 Z " fill="url(#_lgradient_1)"/></clipPath><g clip-path="url(#_clipPath_Z6ysiSmebS44dYwsRT7zHMo0A8EWyJp0)"><g opacity="0.23"><path d=" M 1513.834 558.254 L 1580.602 446.259 C 1583.995 447.463 1587.646 448.119 1591.449 448.12 C 1609.394 448.127 1623.968 433.564 1623.975 415.62 C 1623.982 397.675 1609.419 383.101 1591.475 383.094 C 1579.514 383.09 1569.051 389.557 1563.401 399.185 L 1063.522 183.155 C 1063.917 181.227 1064.125 179.231 1064.126 177.186 C 1064.128 171.456 1062.503 166.102 1059.688 161.562 L 1227.111 34.545 L 1231.532 31.237 L 1224.826 22.434 L 1220.464 25.782 L 1052.242 153.422 C 1047.283 149.696 1041.121 147.487 1034.447 147.484 C 1018.06 147.478 1004.751 160.777 1004.745 177.163 L 1004.745 177.163 L 1004.745 177.163 L 1004.745 177.163 C 1004.742 182.731 1006.276 187.944 1008.946 192.401 L 861.416 350.776 L 717.271 218.983 C 719.379 214.39 720.555 209.282 720.558 203.901 C 720.565 183.882 704.318 167.622 684.299 167.614 C 675.658 167.611 667.717 170.636 661.481 175.686 L 235.41 -232.865 L -108.534 136.362 L -112.345 140.39 L -104.238 147.843 L -100.497 143.885 L 235.844 -217.205 L 654.073 183.818 C 650.247 189.563 648.016 196.459 648.013 203.873 L 648.013 203.873 L 648.013 203.873 L 648.013 203.873 L 648.013 203.873 L 648.013 203.873 L 648.013 203.873 L 648.013 203.873 C 648.012 206.298 648.25 208.669 648.704 210.962 L 398.802 302.791 L 403.518 242.737 C 411.835 241.044 418.104 233.683 418.107 224.869 C 418.111 214.8 409.94 206.623 399.872 206.619 C 398.254 206.618 396.684 206.829 395.19 207.224 L 352.82 138.946 L 349.962 134.205 L 340.5 140.091 L 343.488 144.742 L 385.91 213.117 C 383.236 216.289 381.624 220.385 381.622 224.854 L 381.622 224.854 L 381.622 224.854 C 381.619 232.337 386.131 238.775 392.582 241.59 L 387.449 306.962 L 90.448 416.099 L -40.036 592.798 L -40.036 592.798 L 17.965 591.521 L 104.305 422.724 L 386.502 319.026 L 386.502 319.026 L 370.047 528.62 C 367.911 528.438 365.749 528.344 363.566 528.343 C 321.853 528.327 287.975 562.179 287.959 603.891 L 287.959 603.891 L 287.959 603.891 L 287.959 603.891 L 287.959 603.891 L 287.959 603.891 L 287.959 603.891 C 287.956 612.524 289.403 620.821 292.07 628.552 L 97.525 693.687 L 92.324 695.455 L 95.83 705.886 L 101.041 704.118 L 296.425 638.689 C 309.013 662.917 334.338 679.487 363.507 679.498 C 366.43 679.499 369.314 679.334 372.151 679.012 L 417.553 1060.081 L 418.201 1065.561 L 429.121 1064.235 L 428.463 1058.785 L 382.992 676.966 C 415.278 668.377 439.1 638.927 439.114 603.95 C 439.114 602.448 439.071 600.955 438.985 599.474 L 649.226 555.328 C 654.712 571.486 669.058 583.569 686.467 585.777 L 686.347 894.383 C 679.086 896.787 673.84 903.634 673.837 911.698 L 673.837 911.698 C 673.833 921.766 682.004 929.943 692.072 929.947 C 702.14 929.951 710.318 921.78 710.321 911.712 C 710.322 910.776 710.252 909.857 710.116 908.959 L 844.757 847.944 C 854.462 864.708 872.591 875.998 893.338 876.006 C 897.855 876.008 902.248 875.475 906.457 874.467 L 1027.875 1233.898 L 1767.558 1176.175 L 1396.573 1008.729 C 1399.286 1002.092 1400.782 994.831 1400.785 987.222 C 1400.798 955.763 1375.267 930.213 1343.807 930.2 C 1333.377 930.196 1323.596 933 1315.181 937.897 L 1172.748 723.408 L 1431.152 628.454 C 1440.172 647.374 1459.477 660.466 1481.818 660.474 C 1488.816 660.477 1495.517 659.196 1501.698 656.854 L 1723.398 1072.768 L 1725.571 1077.87 L 1735.64 1073.41 L 1733.503 1068.4 L 1510.825 652.409 C 1527.076 642.58 1537.952 624.739 1537.96 604.377 C 1537.961 601.85 1537.794 599.361 1537.471 596.922 L 1914.747 436.79 L 1914.747 436.79 L 1926.748 419.853 L 1534.892 586.021 L 1534.892 586.021 C 1530.969 574.681 1523.509 564.984 1513.834 558.254 Z  M 987.765 481.097 L 987.765 481.097 L 862.051 366.232 L 726.84 511.393 C 733.564 519.314 737.621 529.569 737.617 540.763 C 737.608 564.037 720.047 583.236 697.467 585.839 L 697.347 894.236 C 700.39 895.153 703.098 896.845 705.243 899.081 L 840.21 837.933 C 838.283 832.262 837.238 826.184 837.241 819.865 L 837.241 819.865 L 837.241 819.865 L 837.241 819.865 L 837.241 819.865 C 837.253 788.891 862.409 763.755 893.382 763.767 C 915.705 763.776 934.996 776.845 944.025 795.739 L 1155.881 717.89 L 1040.284 543.814 C 1034.708 546.534 1028.444 548.059 1021.827 548.057 C 998.561 548.048 979.679 529.152 979.688 505.886 L 979.688 505.886 L 979.688 505.886 L 979.688 505.886 L 979.688 505.886 L 979.688 505.886 L 979.688 505.886 L 979.688 505.886 L 979.688 505.886 L 979.688 505.886 L 979.688 505.886 C 979.692 496.623 982.689 488.055 987.765 481.097 Z  M 652.462 221.295 L 652.462 221.295 L 397.855 314.854 L 380.934 530.359 C 391.004 532.735 400.298 537.127 408.366 543.086 L 653.126 222.455 C 652.898 222.073 652.676 221.686 652.462 221.295 Z  M 1427.422 618.11 L 1427.422 618.11 L 1166.494 713.99 L 1166.494 713.99 L 1166.494 713.99 L 1049.457 537.743 C 1055.35 532.627 1059.811 525.904 1062.155 518.258 L 1426.019 598.544 C 1425.822 600.447 1425.722 602.379 1425.721 604.333 L 1425.721 604.333 L 1425.721 604.333 L 1425.721 604.333 L 1425.721 604.333 L 1425.721 604.333 C 1425.719 609.086 1426.309 613.701 1427.422 618.11 Z  M 995.285 473.174 L 995.285 473.174 L 869.534 358.199 L 1016.276 200.659 C 1021.294 204.547 1027.59 206.863 1034.424 206.865 C 1040.695 206.868 1046.516 204.921 1051.313 201.599 L 1436.654 571.086 C 1432.972 576.076 1430.096 581.697 1428.22 587.755 L 1063.972 507.395 C 1063.989 506.905 1063.998 506.412 1063.998 505.918 C 1064.007 482.653 1045.125 463.756 1021.86 463.747 C 1011.791 463.743 1002.54 467.277 995.285 473.174 Z  M 718.758 503.92 L 853.93 358.812 L 853.93 358.812 L 853.93 358.812 L 711.097 228.306 C 704.458 235.59 694.894 240.163 684.271 240.159 C 674.794 240.155 666.163 236.51 659.701 230.548 L 416.618 550.143 C 427.024 560.415 434.467 573.68 437.544 588.535 L 646.988 544.562 C 646.882 543.298 646.829 542.019 646.829 540.728 L 646.829 540.728 L 646.829 540.728 L 646.829 540.728 L 646.829 540.728 L 646.829 540.728 L 646.829 540.728 L 646.829 540.728 L 646.829 540.728 C 646.839 515.674 667.187 495.342 692.241 495.352 C 702.137 495.355 711.297 498.533 718.758 503.92 Z  M 1059.342 193.332 L 1559.527 409.48 C 1559.148 411.461 1558.95 413.505 1558.949 415.594 L 1558.949 415.594 L 1558.949 415.594 L 1558.949 415.594 L 1558.949 415.594 L 1558.949 415.594 L 1558.949 415.594 L 1558.949 415.594 L 1558.949 415.594 L 1558.949 415.594 C 1558.945 425.794 1563.648 434.904 1571.003 440.87 L 1504.227 552.885 C 1497.374 549.897 1489.81 548.238 1481.862 548.235 C 1467.288 548.23 1454.002 553.792 1444.017 562.911 L 1059.05 193.774 C 1059.149 193.627 1059.246 193.48 1059.342 193.332 Z  M 1306.245 944.322 L 1162.135 727.308 L 1162.135 727.308 L 1162.135 727.308 L 1162.135 727.308 L 1162.135 727.308 L 947.766 806.082 C 948.887 810.505 949.481 815.138 949.48 819.908 C 949.478 824.983 948.801 829.901 947.534 834.577 L 1291.236 965.098 C 1294.619 957.072 1299.789 949.98 1306.245 944.322 Z  M 916.857 870.858 L 916.857 870.858 L 1035.56 1222.261 L 1723.921 1168.538 L 1391.434 1018.478 C 1381.235 1033.974 1363.684 1044.208 1343.763 1044.2 C 1312.304 1044.188 1286.773 1018.637 1286.785 987.178 L 1286.785 987.178 L 1286.785 987.178 L 1286.785 987.178 L 1286.785 987.178 L 1286.785 987.178 L 1286.785 987.178 L 1286.785 987.178 L 1286.785 987.178 L 1286.785 987.178 L 1286.785 987.178 C 1286.787 983.221 1287.192 979.358 1287.963 975.628 L 943.625 844.855 C 937.934 856.278 928.464 865.493 916.857 870.858 Z  M 2359.303 649.58 L 2359.303 649.58 L 2359.303 649.58 Z  M 1012.618 1004.41 L 1012.618 1004.41 L 1012.618 1004.41 L 1012.618 1004.41 Z  M 551.62 591.728 L 551.62 591.728 L 551.62 591.728 L 551.62 591.728 L 551.62 591.728 Z " fill-rule="evenodd" fill="rgb(255,255,255)"/></g></g><path d=" M 783.507 353.329 L 783.507 833.224 C 783.507 845.263 793.282 855.038 805.321 855.038 L 883.671 855.038 C 895.71 855.038 905.484 845.263 905.484 833.224 L 905.484 353.329 C 905.484 341.29 895.71 331.516 883.671 331.516 L 805.321 331.516 C 793.282 331.516 783.507 341.29 783.507 353.329 Z " fill="rgb(255,255,255)"/><path d=" M 1178.711 855.038 L 1603.429 855.038 C 1618.661 855.038 1624.655 844.759 1616.806 832.099 L 1312.347 341.002 C 1304.499 328.342 1291.779 328.356 1283.96 341.033 L 981.117 832.068 L 981.117 832.068 C 973.299 844.745 979.317 855.038 994.549 855.038 L 1085.925 855.038 C 1097.781 855.038 1112.466 846.849 1118.699 836.763 L 1294.174 552.798 C 1296.674 548.745 1300.74 548.74 1303.249 552.788 L 1411.99 728.087 C 1414.499 732.134 1412.583 735.42 1407.713 735.42 L 1251.434 734.949 C 1242.706 734.922 1231.747 740.836 1226.977 748.146 L 1168.968 837.047 C 1162.489 846.976 1166.855 855.038 1178.711 855.038 Z " fill="rgb(255,255,255)"/><path d=" M 615.089 853.674 L 415.328 853.674 C 403.289 853.674 393.515 843.9 393.515 831.861 L 393.515 353.329 C 393.515 341.29 403.289 331.516 415.328 331.516 L 493.897 331.516 C 505.936 331.516 515.71 341.29 515.71 353.329 L 515.71 711.182 C 515.71 723.222 525.484 732.996 537.523 732.996 L 691.148 732.996 C 703.187 732.996 707.749 741.265 701.33 751.45 L 648.533 835.22 C 642.114 845.405 627.128 853.674 615.089 853.674 Z " fill="rgb(255,255,255)"/></g></svg>