<?xml version="1.0" encoding="UTF-8" standalone="no"?><!-- Generator: Gravit.io --><svg xmlns="http://www.w3.org/2000/svg" xmlns:xlink="http://www.w3.org/1999/xlink" style="isolation:isolate" viewBox="0 0 512 512" width="512pt" height="512pt"><defs><clipPath id="_clipPath_FPBMWX1pZCh3MjWXIFQhWUW90eHmdkBq"><rect width="512" height="512"/></clipPath></defs><g clip-path="url(#_clipPath_FPBMWX1pZCh3MjWXIFQhWUW90eHmdkBq)"><linearGradient id="_lgradient_0" x1="0" y1="0.5" x2="1" y2="0.5" gradientTransform="matrix(121.518,0,0,418.484,92.557,60)" gradientUnits="userSpaceOnUse"><stop offset="0%" stop-opacity="1" style="stop-color:rgb(56,239,125)"/><stop offset="100%" stop-opacity="1" style="stop-color:rgb(17,153,142)"/></linearGradient><path d=" M 125.705 478.484 C 109.067 467.593 80.379 439.054 104 380 C 123.041 335.985 158 291 128 260 C 62 186 94 115 176 60 C 176 60 160 140 184 188 C 201.887 223.777 232 284 200 348 C 180 383 160.958 463.545 142.103 477.397 L 142.103 477.397 C 137.966 465.058 126.559 419.795 158.785 368.238 C 208.313 288.961 177.078 249.199 154.266 220.16 L 148.488 212.734 C 141.84 206 137.473 197.348 136 188 L 120 188 C 121.234 200.988 126.828 213.176 135.871 222.586 L 141.688 230.031 C 163.77 258.16 188.801 290.031 145.215 359.762 C 112.353 412.339 120.322 459.581 125.705 478.484 Z  M 136 172.215 L 120 171.785 C 120.273 159.484 123.293 147.402 128.84 136.426 L 143.16 143.574 C 138.664 152.469 136.219 162.254 136 172.215 L 136 172.215 Z " fill-rule="evenodd" fill="url(#_lgradient_0)"/><linearGradient id="_lgradient_1" x1="0" y1="0.5" x2="1" y2="0.5" gradientTransform="matrix(128.1,0,0,457.77,256.86,20)" gradientUnits="userSpaceOnUse"><stop offset="0%" stop-opacity="1" style="stop-color:rgb(56,239,125)"/><stop offset="100%" stop-opacity="1" style="stop-color:rgb(17,153,142)"/></linearGradient><path d=" M 347.646 477.314 C 364.415 465.243 390.996 434.911 368 372 C 343.738 318.805 314 275 344 236 C 344 236 408 164 376 107.543 C 336.223 37.383 296 20 296 20 C 296 20 312 107.543 288 160.07 C 270.113 199.199 237.602 263.113 272 332 C 280.367 348.762 296 360.223 296 404 C 296 444.131 309.446 455.841 330.198 477.77 C 334.726 468.379 350.68 427.264 320.84 367.594 C 269.594 265.098 300.84 220.754 321.465 191.406 C 329.395 181.121 334.414 168.891 336 156 L 352 156 C 352 174.398 338.641 194.793 334.535 200.609 C 314.977 228.398 288.137 266.473 335.16 360.426 C 363.142 416.399 354.425 458.617 347.646 477.314 Z  M 336 140.199 C 335.746 130.156 333.262 120.293 328.727 111.328 L 343.273 104.672 C 348.719 115.602 351.699 127.594 352 139.801 L 336 140.199 L 336 140.199 Z " fill-rule="evenodd" fill="url(#_lgradient_1)"/><path d=" M 16 476 L 184 476 L 184 492 L 16 492 L 16 476 L 16 476 L 16 476 L 16 476 Z  M 200 476 L 216 476 L 216 492 L 200 492 L 200 476 L 200 476 L 200 476 L 200 476 Z  M 232 476 L 384 476 L 384 492 L 232 492 L 232 476 L 232 476 L 232 476 Z  M 400 476 L 416 476 L 416 492 L 400 492 L 400 476 L 400 476 Z  M 432 476 L 496 476 L 496 492 L 432 492 L 432 476 Z " fill-rule="evenodd" fill="rgb(189,189,189)"/><g><linearGradient id="_lgradient_2" x1="0.1464466094067262" y1="0.14644660940672627" x2="0.8535533905932737" y2="0.8535533905932737" gradientTransform="matrix(32,0,0,32,216,116)" gradientUnits="userSpaceOnUse"><stop offset="0%" stop-opacity="1" style="stop-color:rgb(0,180,219)"/><stop offset="98.69565217391305%" stop-opacity="1" style="stop-color:rgb(0,131,176)"/></linearGradient><path d=" M 248 132 C 248 140.836 240.836 148 232 148 C 223.164 148 216 140.836 216 132 C 216 123.164 223.164 116 232 116 C 240.836 116 248 123.164 248 132 Z " fill="url(#_lgradient_2)"/><linearGradient id="_lgradient_3" x1="0.1464466094067262" y1="0.14644660940672627" x2="0.8535533905932737" y2="0.8535533905932737" gradientTransform="matrix(32,0,0,32,400,36)" gradientUnits="userSpaceOnUse"><stop offset="0%" stop-opacity="1" style="stop-color:rgb(0,180,219)"/><stop offset="98.69565217391305%" stop-opacity="1" style="stop-color:rgb(0,131,176)"/></linearGradient><path d=" M 432 52 C 432 60.836 424.836 68 416 68 C 407.164 68 400 60.836 400 52 C 400 43.164 407.164 36 416 36 C 424.836 36 432 43.164 432 52 Z " fill="url(#_lgradient_3)"/><linearGradient id="_lgradient_4" x1="0.1464466094067262" y1="0.14644660940672627" x2="0.8535533905932737" y2="0.8535533905932737" gradientTransform="matrix(48,0,0,48,400,284)" gradientUnits="userSpaceOnUse"><stop offset="0%" stop-opacity="1" style="stop-color:rgb(0,180,219)"/><stop offset="98.69565217391305%" stop-opacity="1" style="stop-color:rgb(0,131,176)"/></linearGradient><path d=" M 448 308 C 448 321.254 437.254 332 424 332 C 410.746 332 400 321.254 400 308 C 400 294.746 410.746 284 424 284 C 437.254 284 448 294.746 448 308 Z " fill="url(#_lgradient_4)"/><linearGradient id="_lgradient_5" x1="0.1464466094067262" y1="0.14644660940672627" x2="0.8535533905932737" y2="0.8535533905932737" gradientTransform="matrix(48,0,0,48,40,44)" gradientUnits="userSpaceOnUse"><stop offset="0%" stop-opacity="1" style="stop-color:rgb(0,180,219)"/><stop offset="98.69565217391305%" stop-opacity="1" style="stop-color:rgb(0,131,176)"/></linearGradient><path d=" M 88 68 C 88 81.254 77.254 92 64 92 C 50.746 92 40 81.254 40 68 C 40 54.746 50.746 44 64 44 C 77.254 44 88 54.746 88 68 Z " fill="url(#_lgradient_5)"/><linearGradient id="_lgradient_6" x1="0.1464466094067262" y1="0.14644660940672627" x2="0.8535533905932737" y2="0.8535533905932737" gradientTransform="matrix(32,0,0,32,24,228)" gradientUnits="userSpaceOnUse"><stop offset="0%" stop-opacity="1" style="stop-color:rgb(0,180,219)"/><stop offset="98.69565217391305%" stop-opacity="1" style="stop-color:rgb(0,131,176)"/></linearGradient><path d=" M 56 244 C 56 252.836 48.836 260 40 260 C 31.164 260 24 252.836 24 244 C 24 235.164 31.164 228 40 228 C 48.836 228 56 235.164 56 244 Z " fill="url(#_lgradient_6)"/><linearGradient id="_lgradient_7" x1="0.1464466094067262" y1="0.14644660940672627" x2="0.8535533905932737" y2="0.8535533905932737" gradientTransform="matrix(16,0,0,16,64,292)" gradientUnits="userSpaceOnUse"><stop offset="0%" stop-opacity="1" style="stop-color:rgb(0,180,219)"/><stop offset="98.69565217391305%" stop-opacity="1" style="stop-color:rgb(0,131,176)"/></linearGradient><path d=" M 64 292 L 80 292 L 80 308 L 64 308 L 64 292 Z " fill="url(#_lgradient_7)"/><linearGradient id="_lgradient_8" x1="0.1464466094067262" y1="0.14644660940672627" x2="0.8535533905932737" y2="0.8535533905932737" gradientTransform="matrix(16,0,0,16,408,236)" gradientUnits="userSpaceOnUse"><stop offset="0%" stop-opacity="1" style="stop-color:rgb(0,180,219)"/><stop offset="98.69565217391305%" stop-opacity="1" style="stop-color:rgb(0,131,176)"/></linearGradient><path d=" M 408 236 L 424 236 L 424 252 L 408 252 L 408 236 Z " fill="url(#_lgradient_8)"/><linearGradient id="_lgradient_9" x1="0.1464466094067262" y1="0.14644660940672627" x2="0.8535533905932737" y2="0.8535533905932737" gradientTransform="matrix(16,0,0,16,256,84)" gradientUnits="userSpaceOnUse"><stop offset="0%" stop-opacity="1" style="stop-color:rgb(0,180,219)"/><stop offset="98.69565217391305%" stop-opacity="1" style="stop-color:rgb(0,131,176)"/></linearGradient><path d=" M 256 84 L 272 84 L 272 100 L 256 100 L 256 84 Z " fill="url(#_lgradient_9)"/><linearGradient id="_lgradient_10" x1="0.1464466094067262" y1="0.14644660940672627" x2="0.8535533905932737" y2="0.8535533905932737" gradientTransform="matrix(16,0,0,16,56,116)" gradientUnits="userSpaceOnUse"><stop offset="0%" stop-opacity="1" style="stop-color:rgb(0,180,219)"/><stop offset="98.69565217391305%" stop-opacity="1" style="stop-color:rgb(0,131,176)"/></linearGradient><path d=" M 56 116 L 72 116 L 72 132 L 56 132 L 56 116 Z " fill="url(#_lgradient_10)"/><linearGradient id="_lgradient_11" x1="0.1464466094067262" y1="0.14644660940672627" x2="0.8535533905932737" y2="0.8535533905932737" gradientTransform="matrix(16,0,0,16,432,92)" gradientUnits="userSpaceOnUse"><stop offset="0%" stop-opacity="1" style="stop-color:rgb(0,180,219)"/><stop offset="98.69565217391305%" stop-opacity="1" style="stop-color:rgb(0,131,176)"/></linearGradient><path d=" M 432 92 L 448 92 L 448 108 L 432 108 L 432 92 Z " fill="url(#_lgradient_11)"/></g></g></svg>