<?xml version="1.0" encoding="UTF-8" standalone="no"?><!-- Generator: Gravit.io --><svg xmlns="http://www.w3.org/2000/svg" xmlns:xlink="http://www.w3.org/1999/xlink" style="isolation:isolate" viewBox="0 0 512 512" width="512pt" height="512pt"><defs><clipPath id="_clipPath_4NfAKqNIcGE4Pq7cCVoaABaRvmeTS3b3"><rect width="512" height="512"/></clipPath></defs><g clip-path="url(#_clipPath_4NfAKqNIcGE4Pq7cCVoaABaRvmeTS3b3)"><clipPath id="_clipPath_GTnxjYGzCKkthjtJR3k4JAdn5XjyA7Ul"><rect x="0" y="0" width="512" height="512" transform="matrix(1,0,0,1,0,0)" fill="rgb(255,255,255)"/></clipPath><g clip-path="url(#_clipPath_GTnxjYGzCKkthjtJR3k4JAdn5XjyA7Ul)"><g><linearGradient id="_lgradient_0" x1="-0.0000019050345595461593" y1="0.4999999999999999" x2="0.999998272669805" y2="0.4999999999999999" gradientTransform="matrix(121.518,0,0,418.484,112.557,57.516)" gradientUnits="userSpaceOnUse"><stop offset="0%" stop-opacity="1" style="stop-color:rgb(56,239,125)"/><stop offset="100%" stop-opacity="1" style="stop-color:rgb(17,153,142)"/></linearGradient><path d=" M 145.705 476 C 129.067 465.109 100.379 436.57 124 377.516 C 143.041 333.501 178 288.516 148 257.516 C 82 183.516 114 112.516 196 57.516 C 196 57.516 180 137.516 204 185.516 C 221.887 221.293 252 281.516 220 345.516 C 200 380.516 180.958 461.061 162.103 474.913 L 162.103 474.913 C 157.966 462.574 146.559 417.311 178.785 365.754 C 228.313 286.477 197.078 246.715 174.266 217.676 L 168.488 210.25 C 161.84 203.516 157.473 194.864 156 185.516 L 140 185.516 C 141.234 198.504 146.828 210.692 155.871 220.102 L 161.688 227.547 C 183.77 255.676 208.801 287.547 165.215 357.278 C 132.353 409.855 140.322 457.097 145.705 476 Z  M 156 169.731 L 140 169.301 C 140.273 157 143.293 144.918 148.84 133.942 L 163.16 141.09 C 158.664 149.985 156.219 159.77 156 169.731 L 156 169.731 Z " fill-rule="evenodd" fill="url(#_lgradient_0)"/><linearGradient id="_lgradient_1" x1="-0.000004596178927229744" y1="0.5" x2="1.0000000000000004" y2="0.5" gradientTransform="matrix(128.099,0,0,457.77,276.861,17.516)" gradientUnits="userSpaceOnUse"><stop offset="0%" stop-opacity="1" style="stop-color:rgb(56,239,125)"/><stop offset="100%" stop-opacity="1" style="stop-color:rgb(17,153,142)"/></linearGradient><path d=" M 367.646 474.83 C 384.415 462.759 410.996 432.427 388 369.516 C 363.738 316.321 334 272.516 364 233.516 C 364 233.516 428 161.516 396 105.059 C 356.223 34.899 316 17.516 316 17.516 C 316 17.516 332 105.059 308 157.586 C 290.113 196.715 257.602 260.629 292 329.516 C 300.367 346.278 316 357.739 316 401.516 C 316 441.647 329.446 453.357 350.198 475.286 C 354.726 465.895 370.68 424.78 340.84 365.11 C 289.594 262.614 320.84 218.27 341.465 188.922 C 349.395 178.637 354.414 166.407 356 153.516 L 372 153.516 C 372 171.914 358.641 192.309 354.535 198.125 C 334.977 225.914 308.137 263.989 355.16 357.942 C 383.142 413.915 374.425 456.133 367.646 474.83 Z  M 356 137.715 C 355.746 127.672 353.262 117.809 348.727 108.844 L 363.273 102.188 C 368.719 113.118 371.699 125.11 372 137.317 L 356 137.715 L 356 137.715 Z " fill-rule="evenodd" fill="url(#_lgradient_1)"/><path d=" M 16 476 L 184 476 L 184 492 L 16 492 L 16 476 L 16 476 L 16 476 L 16 476 L 16 476 Z  M 200 476 L 216 476 L 216 492 L 200 492 L 200 476 L 200 476 L 200 476 L 200 476 L 200 476 Z  M 232 476 L 384 476 L 384 492 L 232 492 L 232 476 L 232 476 L 232 476 L 232 476 Z  M 400 476 L 416 476 L 416 492 L 400 492 L 400 476 L 400 476 L 400 476 Z  M 432 476 L 496 476 L 496 492 L 432 492 L 432 476 L 432 476 Z " fill-rule="evenodd" fill="rgb(189,189,189)"/><g><linearGradient id="_lgradient_2" x1="0.14644660940672605" y1="0.14644660940672605" x2="0.8535533905932741" y2="0.8535533905932744" gradientTransform="matrix(32,0,0,32,236,113.516)" gradientUnits="userSpaceOnUse"><stop offset="0%" stop-opacity="1" style="stop-color:rgb(0,180,219)"/><stop offset="98.69565217391305%" stop-opacity="1" style="stop-color:rgb(0,131,176)"/></linearGradient><path d=" M 268 129.516 C 268 138.352 260.836 145.516 252 145.516 C 243.164 145.516 236 138.352 236 129.516 C 236 120.68 243.164 113.516 252 113.516 C 260.836 113.516 268 120.68 268 129.516 Z " fill="url(#_lgradient_2)"/><linearGradient id="_lgradient_3" x1="0.14644660940672694" y1="0.14644660940672627" x2="0.8535533905932731" y2="0.853553390593274" gradientTransform="matrix(32,0,0,32,420,33.516)" gradientUnits="userSpaceOnUse"><stop offset="0%" stop-opacity="1" style="stop-color:rgb(0,180,219)"/><stop offset="98.69565217391305%" stop-opacity="1" style="stop-color:rgb(0,131,176)"/></linearGradient><path d=" M 452 49.516 C 452 58.352 444.836 65.516 436 65.516 C 427.164 65.516 420 58.352 420 49.516 C 420 40.68 427.164 33.516 436 33.516 C 444.836 33.516 452 40.68 452 49.516 Z " fill="url(#_lgradient_3)"/><linearGradient id="_lgradient_4" x1="0.14644660940672694" y1="0.14644660940672605" x2="0.853553390593275" y2="0.8535533905932744" gradientTransform="matrix(48,0,0,48,420,281.516)" gradientUnits="userSpaceOnUse"><stop offset="0%" stop-opacity="1" style="stop-color:rgb(0,180,219)"/><stop offset="98.69565217391305%" stop-opacity="1" style="stop-color:rgb(0,131,176)"/></linearGradient><path d=" M 468 305.516 C 468 318.77 457.254 329.516 444 329.516 C 430.746 329.516 420 318.77 420 305.516 C 420 292.262 430.746 281.516 444 281.516 C 457.254 281.516 468 292.262 468 305.516 Z " fill="url(#_lgradient_4)"/><linearGradient id="_lgradient_5" x1="0.14644660940672627" y1="0.14644660940672638" x2="0.8535533905932737" y2="0.8535533905932742" gradientTransform="matrix(48,0,0,48,60,41.516)" gradientUnits="userSpaceOnUse"><stop offset="0%" stop-opacity="1" style="stop-color:rgb(0,180,219)"/><stop offset="98.69565217391305%" stop-opacity="1" style="stop-color:rgb(0,131,176)"/></linearGradient><path d=" M 108 65.516 C 108 78.77 97.254 89.516 84 89.516 C 70.746 89.516 60 78.77 60 65.516 C 60 52.262 70.746 41.516 84 41.516 C 97.254 41.516 108 52.262 108 65.516 Z " fill="url(#_lgradient_5)"/><linearGradient id="_lgradient_6" x1="0.14644660940672627" y1="0.14644660940672605" x2="0.8535533905932737" y2="0.8535533905932738" gradientTransform="matrix(32,0,0,32,44,225.516)" gradientUnits="userSpaceOnUse"><stop offset="0%" stop-opacity="1" style="stop-color:rgb(0,180,219)"/><stop offset="98.69565217391305%" stop-opacity="1" style="stop-color:rgb(0,131,176)"/></linearGradient><path d=" M 76 241.516 C 76 250.352 68.836 257.516 60 257.516 C 51.164 257.516 44 250.352 44 241.516 C 44 232.68 51.164 225.516 60 225.516 C 68.836 225.516 76 232.68 76 241.516 Z " fill="url(#_lgradient_6)"/><linearGradient id="_lgradient_7" x1="0.14644660940672605" y1="0.14644660940672694" x2="0.853553390593274" y2="0.8535533905932738" gradientTransform="matrix(16,0,0,16,84,289.516)" gradientUnits="userSpaceOnUse"><stop offset="0%" stop-opacity="1" style="stop-color:rgb(0,180,219)"/><stop offset="98.69565217391305%" stop-opacity="1" style="stop-color:rgb(0,131,176)"/></linearGradient><path d=" M 84 289.516 L 100 289.516 L 100 305.516 L 84 305.516 L 84 289.516 Z " fill="url(#_lgradient_7)"/><linearGradient id="_lgradient_8" x1="0.14644660940672694" y1="0.14644660940672694" x2="0.8535533905932731" y2="0.8535533905932734" gradientTransform="matrix(16,0,0,16,428,233.516)" gradientUnits="userSpaceOnUse"><stop offset="0%" stop-opacity="1" style="stop-color:rgb(0,180,219)"/><stop offset="98.69565217391305%" stop-opacity="1" style="stop-color:rgb(0,131,176)"/></linearGradient><path d=" M 428 233.516 L 444 233.516 L 444 249.516 L 428 249.516 L 428 233.516 Z " fill="url(#_lgradient_8)"/><linearGradient id="_lgradient_9" x1="0.14644660940672694" y1="0.14644660940672605" x2="0.8535533905932731" y2="0.8535533905932737" gradientTransform="matrix(16,0,0,16,276,81.516)" gradientUnits="userSpaceOnUse"><stop offset="0%" stop-opacity="1" style="stop-color:rgb(0,180,219)"/><stop offset="98.69565217391305%" stop-opacity="1" style="stop-color:rgb(0,131,176)"/></linearGradient><path d=" M 276 81.516 L 292 81.516 L 292 97.516 L 276 97.516 L 276 81.516 Z " fill="url(#_lgradient_9)"/><linearGradient id="_lgradient_10" x1="0.14644660940672605" y1="0.14644660940672605" x2="0.853553390593274" y2="0.853553390593273" gradientTransform="matrix(16,0,0,16,76,113.516)" gradientUnits="userSpaceOnUse"><stop offset="0%" stop-opacity="1" style="stop-color:rgb(0,180,219)"/><stop offset="98.69565217391305%" stop-opacity="1" style="stop-color:rgb(0,131,176)"/></linearGradient><path d=" M 76 113.516 L 92 113.516 L 92 129.516 L 76 129.516 L 76 113.516 Z " fill="url(#_lgradient_10)"/><linearGradient id="_lgradient_11" x1="0.14644660940672694" y1="0.14644660940672605" x2="0.8535533905932731" y2="0.8535533905932737" gradientTransform="matrix(16,0,0,16,452,89.516)" gradientUnits="userSpaceOnUse"><stop offset="0%" stop-opacity="1" style="stop-color:rgb(0,180,219)"/><stop offset="98.69565217391305%" stop-opacity="1" style="stop-color:rgb(0,131,176)"/></linearGradient><path d=" M 452 89.516 L 468 89.516 L 468 105.516 L 452 105.516 L 452 89.516 Z " fill="url(#_lgradient_11)"/></g></g></g></g></svg>