<?xml version="1.0" encoding="UTF-8" standalone="no"?><!-- Generator: Gravit.io --><svg xmlns="http://www.w3.org/2000/svg" xmlns:xlink="http://www.w3.org/1999/xlink" style="isolation:isolate" viewBox="0 0 1920 1280" width="1920pt" height="1280pt"><defs><clipPath id="_clipPath_IVXNOC2dXQ3VYmypyd7yqFPMeFCT2Up2"><rect width="1920" height="1280"/></clipPath></defs><g clip-path="url(#_clipPath_IVXNOC2dXQ3VYmypyd7yqFPMeFCT2Up2)"><g style="isolation:isolate"><g><path d=" M 1303 1336 L 1305 1083 L 1368 698 L 1495 1083 L 1650 1023 L 1436 729 L 1689 774 L 1650 1023 L 1820 803 L 1659 595 L 1718 571 L 1453 491 L 1436 729 L 1368 698 L 1358 464 L 1147 491 L 1189 571 L 1209 320 L 1477 253 L 1189 571 L 961 438 L 842 529 L 1112 585 L 1368 698 L 938 782 L 1112 585 L 1147 491 L 992 394 L 1209 320 L 1183 219 L 999 237 L 961 438 L 992 394 L 1140 85 L 999 237 L 1183 219 L 1140 85 L 1329 71 L 1183 219 L 1477 253 L 1329 71 L 1591 -25 L 1644 -23 L 1477 253 L 1453 491 L 1358 464 L 1659 595 L 1436 729 L 1368 698 L 1659 591 L 1803 474 L 1477 253 L 1761 231 L 1803 474 L 1820 803 L 1684 774 L 1718 571 L 1303 1336 L 1303 1336 Z  M 1898 340 L 1803 474 L 1761 231 L 1898 340 L 1898 340 Z  M 1697 -30 L 1898 340 L 1697 -30 Z " fill-rule="evenodd" fill="none" vector-effect="non-scaling-stroke" stroke-width="1" stroke="rgb(235,235,235)" stroke-linejoin="miter" stroke-linecap="square" stroke-miterlimit="3"/><circle vector-effect="non-scaling-stroke" cx="1305.5" cy="1086.5" r="23.5" fill="rgb(235,235,235)"/><circle vector-effect="non-scaling-stroke" cx="1494.5" cy="1075.5" r="7.5" fill="rgb(235,235,235)"/><circle vector-effect="non-scaling-stroke" cx="1648" cy="1027" r="27" fill="rgb(235,235,235)"/><circle vector-effect="non-scaling-stroke" cx="1608" cy="857" r="13" fill="rgb(235,235,235)"/><circle vector-effect="non-scaling-stroke" cx="1686.5" cy="776.5" r="11.5" fill="rgb(235,235,235)"/><circle vector-effect="non-scaling-stroke" cx="1821" cy="803" r="8" fill="rgb(235,235,235)"/><circle vector-effect="non-scaling-stroke" cx="1436" cy="729" r="13" fill="rgb(235,235,235)"/><circle vector-effect="non-scaling-stroke" cx="1367" cy="702" r="27" fill="rgb(235,235,235)"/><circle vector-effect="non-scaling-stroke" cx="1356.5" cy="464.5" r="13.5" fill="rgb(235,235,235)"/><circle vector-effect="non-scaling-stroke" cx="1149.5" cy="493.50000000000006" r="15.5" fill="rgb(235,235,235)"/><circle vector-effect="non-scaling-stroke" cx="1188.5" cy="577.5" r="12.5" fill="rgb(235,235,235)"/><circle vector-effect="non-scaling-stroke" cx="1109.5" cy="586" r="8.5" fill="rgb(235,235,235)"/><circle vector-effect="non-scaling-stroke" cx="993.5" cy="393.50000000000006" r="8.5" fill="rgb(235,235,235)"/><circle vector-effect="non-scaling-stroke" cx="959.9999999999999" cy="438.50000000000006" r="15.5" fill="rgb(235,235,235)"/><circle vector-effect="non-scaling-stroke" cx="840" cy="531" r="17" fill="rgb(235,235,235)"/><circle vector-effect="non-scaling-stroke" cx="938.9999999999999" cy="784" r="11" fill="rgb(235,235,235)"/><circle vector-effect="non-scaling-stroke" cx="1660" cy="594.5" r="25" fill="rgb(235,235,235)"/><circle vector-effect="non-scaling-stroke" cx="1717.0000000000002" cy="572" r="7" fill="rgb(235,235,235)"/><circle vector-effect="non-scaling-stroke" cx="1453" cy="492.00000000000006" r="12" fill="rgb(235,235,235)"/><circle vector-effect="non-scaling-stroke" cx="998" cy="236.99999999999997" r="10" fill="rgb(235,235,235)"/><circle vector-effect="non-scaling-stroke" cx="1206" cy="318" r="10" fill="rgb(235,235,235)"/><circle vector-effect="non-scaling-stroke" cx="1141.25" cy="85.25" r="12.75" fill="rgb(235,235,235)"/><circle vector-effect="non-scaling-stroke" cx="1180" cy="221" r="18" fill="rgb(235,235,235)"/><circle vector-effect="non-scaling-stroke" cx="1325.5" cy="72.5" r="14.5" fill="rgb(235,235,235)"/><g opacity="0.29"><circle vector-effect="non-scaling-stroke" cx="1475" cy="254" r="17" fill="rgb(235,235,235)"/></g><circle vector-effect="non-scaling-stroke" cx="1475" cy="254" r="8" fill="rgb(235,235,235)"/><circle vector-effect="non-scaling-stroke" cx="1897.4999999999995" cy="342.49999999999994" r="8.999999999999773" fill="rgb(235,235,235)"/><circle vector-effect="non-scaling-stroke" cx="1803" cy="472.5" r="8" fill="rgb(235,235,235)"/><circle vector-effect="non-scaling-stroke" cx="1761.5" cy="231.5" r="14.5" fill="rgb(235,235,235)"/><circle vector-effect="non-scaling-stroke" cx="1897.4999999999995" cy="342.5" r="14.5" fill="rgb(255,255,255)" stroke-width="1" stroke="rgb(235,235,235)" stroke-linejoin="miter" stroke-linecap="square" stroke-miterlimit="3"/><circle vector-effect="non-scaling-stroke" cx="1462" cy="648" r="29" fill="none" stroke-width="5" stroke="rgb(235,235,235)" stroke-linejoin="miter" stroke-linecap="square" stroke-miterlimit="3"/></g><g><path d=" M -36.783 256.917 L 83.883 469.784 L 217.287 822.704 L -75.251 561.66 L -176.058 686.864 L 145.344 829.622 L -88.316 914.273 L -176.058 686.864 L -212.058 953.33 L 23.367 1049.687 L -14.443 1098.318 L 246.192 1037.179 L 145.344 829.622 L 217.287 822.704 L 338.816 1013.855 L 502.482 889.21 L 428.621 842.516 L 533.243 1062.411 L 341.178 1248.121 L 428.621 842.516 L 683.895 843.658 L 739.559 709.898 L 486.342 793.556 L 217.287 822.704 L 536.814 544.42 L 486.342 793.556 L 502.482 889.21 L 679.207 895.501 L 533.243 1062.411 L 603.859 1134.431 L 749.263 1030.381 L 683.895 843.658 L 679.207 895.501 L 704.67 1225.87 L 749.263 1030.381 L 603.859 1134.431 L 704.67 1225.87 L 553.143 1328.988 L 603.859 1134.431 L 341.178 1248.121 L 553.143 1328.988 L 380.127 1536.085 L 334.77 1560.039 L 341.178 1248.121 L 246.192 1037.179 L 338.816 1013.855 L 23.367 1049.687 L 145.344 829.622 L 217.287 822.704 L 25.302 1053.037 L -38.729 1220.663 L 341.178 1248.121 L 113.953 1403.878 L -38.729 1220.663 L -212.058 953.33 L -84.128 911.855 L -14.443 1098.318 L -36.783 256.917 L -36.783 256.917 Z  M -53.499 1378.833 L -38.729 1220.663 L 113.953 1403.878 L -53.499 1378.833 L -53.499 1378.833 Z  M 293.765 1591.53 L -53.499 1378.833 L 293.765 1591.53 Z " fill-rule="evenodd" fill="none" vector-effect="non-scaling-stroke" stroke-width="1" stroke="rgb(235,235,235)" stroke-linejoin="miter" stroke-linecap="square" stroke-miterlimit="3"/><path d=" M 101.454 455.73 C 107.726 466.593 103.998 480.505 93.135 486.776 C 82.272 493.048 68.361 489.321 62.089 478.458 C 55.817 467.595 59.545 453.683 70.408 447.412 C 81.271 441.14 95.182 444.867 101.454 455.73 Z " fill="rgb(235,235,235)"/><path d=" M -64.924 564.073 C -62.923 567.54 -64.112 571.98 -67.579 573.981 C -71.046 575.983 -75.486 574.793 -77.488 571.326 C -79.489 567.859 -78.3 563.42 -74.833 561.418 C -71.366 559.416 -66.926 560.606 -64.924 564.073 Z " fill="rgb(235,235,235)"/><path d=" M -153.703 669.491 C -146.497 681.972 -150.78 697.955 -163.261 705.161 C -175.742 712.367 -191.725 708.084 -198.931 695.603 C -206.137 683.122 -201.854 667.139 -189.373 659.933 C -176.892 652.727 -160.909 657.01 -153.703 669.491 Z " fill="rgb(235,235,235)"/><path d=" M -49.722 799.302 C -46.253 805.311 -48.315 813.007 -54.324 816.476 C -60.333 819.946 -68.029 817.883 -71.498 811.874 C -74.968 805.865 -72.906 798.169 -66.896 794.7 C -60.887 791.23 -53.192 793.292 -49.722 799.302 Z " fill="rgb(235,235,235)"/><path d=" M -77.799 905.409 C -74.73 910.725 -76.554 917.533 -81.87 920.602 C -87.186 923.671 -93.994 921.847 -97.063 916.531 C -100.132 911.215 -98.308 904.407 -92.992 901.338 C -87.676 898.269 -80.869 900.093 -77.799 905.409 Z " fill="rgb(235,235,235)"/><path d=" M -206.195 949.945 C -204.06 953.643 -205.329 958.379 -209.027 960.514 C -212.725 962.649 -217.461 961.38 -219.596 957.682 C -221.731 953.984 -220.462 949.248 -216.764 947.113 C -213.066 944.978 -208.33 946.247 -206.195 949.945 Z " fill="rgb(235,235,235)"/><path d=" M 156.232 823.336 C 159.701 829.345 157.639 837.041 151.63 840.51 C 145.621 843.98 137.925 841.918 134.456 835.908 C 130.986 829.899 133.048 822.203 139.057 818.734 C 145.067 815.264 152.762 817.326 156.232 823.336 Z " fill="rgb(235,235,235)"/><path d=" M 238.804 805.814 C 246.01 818.295 241.728 834.278 229.247 841.484 C 216.766 848.69 200.783 844.407 193.577 831.926 C 186.371 819.445 190.654 803.462 203.135 796.256 C 215.615 789.051 231.599 793.333 238.804 805.814 Z " fill="rgb(235,235,235)"/><path d=" M 351.137 1006.183 C 354.74 1012.423 352.599 1020.415 346.358 1024.018 C 340.118 1027.62 332.126 1025.479 328.523 1019.239 C 324.92 1012.998 327.062 1005.007 333.302 1001.404 C 339.543 997.801 347.534 999.942 351.137 1006.183 Z " fill="rgb(235,235,235)"/><path d=" M 512.161 880.83 C 516.298 887.995 513.84 897.17 506.675 901.307 C 499.51 905.444 490.334 902.985 486.197 895.82 C 482.061 888.655 484.519 879.48 491.684 875.343 C 498.849 871.206 508.025 873.665 512.161 880.83 Z " fill="rgb(235,235,235)"/><path d=" M 436.366 830.785 C 439.702 836.563 437.719 843.963 431.941 847.299 C 426.162 850.635 418.763 848.652 415.427 842.874 C 412.091 837.096 414.073 829.696 419.852 826.36 C 425.63 823.024 433.029 825.007 436.366 830.785 Z " fill="rgb(235,235,235)"/><path d=" M 495.071 787.399 C 497.34 791.328 495.992 796.36 492.062 798.629 C 488.133 800.897 483.102 799.549 480.833 795.62 C 478.565 791.691 479.913 786.659 483.842 784.39 C 487.771 782.122 492.803 783.47 495.071 787.399 Z " fill="rgb(235,235,235)"/><path d=" M 685.312 892.534 C 687.581 896.464 686.232 901.495 682.303 903.764 C 678.374 906.032 673.342 904.684 671.074 900.755 C 668.805 896.826 670.154 891.794 674.083 889.526 C 678.012 887.257 683.044 888.605 685.312 892.534 Z " fill="rgb(235,235,235)"/><path d=" M 697.473 835.261 C 701.609 842.426 699.151 851.601 691.986 855.738 C 684.821 859.875 675.645 857.416 671.509 850.251 C 667.372 843.086 669.831 833.911 676.996 829.774 C 684.16 825.637 693.336 828.096 697.473 835.261 Z " fill="rgb(235,235,235)"/><path d=" M 754.506 699.035 C 759.043 706.893 756.346 716.957 748.488 721.494 C 740.629 726.031 730.566 723.334 726.029 715.476 C 721.492 707.618 724.188 697.554 732.047 693.017 C 739.905 688.48 749.969 691.177 754.506 699.035 Z " fill="rgb(235,235,235)"/><path d=" M 544.223 537.909 C 547.158 542.994 545.414 549.505 540.329 552.441 C 535.244 555.377 528.732 553.632 525.797 548.547 C 522.861 543.462 524.606 536.951 529.69 534.015 C 534.775 531.079 541.287 532.824 544.223 537.909 Z " fill="rgb(235,235,235)"/><path d=" M 43.71 1038.5 C 50.382 1050.057 46.417 1064.856 34.86 1071.528 C 23.304 1078.2 8.505 1074.235 1.833 1062.678 C -4.839 1051.122 -0.874 1036.323 10.683 1029.651 C 22.239 1022.979 37.038 1026.944 43.71 1038.5 Z " fill="rgb(235,235,235)"/><path d=" M -8.226 1093.612 C -6.358 1096.848 -7.468 1100.992 -10.704 1102.86 C -13.94 1104.728 -18.083 1103.618 -19.952 1100.382 C -21.82 1097.146 -20.709 1093.002 -17.474 1091.134 C -14.238 1089.266 -10.094 1090.376 -8.226 1093.612 Z " fill="rgb(235,235,235)"/><path d=" M 255.759 1030.539 C 258.962 1036.086 257.059 1043.189 251.512 1046.392 C 245.964 1049.595 238.861 1047.691 235.658 1042.144 C 232.456 1036.597 234.359 1029.494 239.906 1026.291 C 245.453 1023.088 252.557 1024.992 255.759 1030.539 Z " fill="rgb(235,235,235)"/><path d=" M 758.476 1025.061 C 761.145 1029.684 759.559 1035.604 754.937 1038.273 C 750.314 1040.941 744.394 1039.355 741.725 1034.733 C 739.057 1030.11 740.643 1024.19 745.265 1021.522 C 749.888 1018.853 755.808 1020.439 758.476 1025.061 Z " fill="rgb(235,235,235)"/><path d=" M 545.098 1057.8 C 547.767 1062.423 546.181 1068.343 541.558 1071.011 C 536.936 1073.68 531.016 1072.094 528.347 1067.471 C 525.678 1062.849 527.264 1056.929 531.887 1054.26 C 536.51 1051.592 542.429 1053.178 545.098 1057.8 Z " fill="rgb(235,235,235)"/><path d=" M 714.181 1220.1 C 717.584 1225.993 715.561 1233.541 709.668 1236.944 C 703.774 1240.346 696.226 1238.324 692.823 1232.43 C 689.421 1226.537 691.443 1218.989 697.337 1215.586 C 703.231 1212.183 710.778 1214.206 714.181 1220.1 Z " fill="rgb(235,235,235)"/><path d=" M 620.48 1122.602 C 625.284 1130.922 622.429 1141.578 614.108 1146.381 C 605.788 1151.185 595.132 1148.33 590.328 1140.01 C 585.524 1131.689 588.379 1121.034 596.7 1116.23 C 605.021 1111.426 615.676 1114.281 620.48 1122.602 Z " fill="rgb(235,235,235)"/><path d=" M 567.494 1319.028 C 571.364 1325.73 569.064 1334.314 562.361 1338.184 C 555.658 1342.054 547.075 1339.754 543.205 1333.051 C 539.335 1326.348 541.635 1317.765 548.338 1313.895 C 555.04 1310.025 563.624 1312.325 567.494 1319.028 Z " fill="rgb(235,235,235)"/><g opacity="0.29"><path d=" M 356.608 1238.096 C 361.145 1245.954 358.449 1256.018 350.59 1260.555 C 342.732 1265.092 332.668 1262.395 328.131 1254.537 C 323.594 1246.678 326.291 1236.615 334.149 1232.078 C 342.008 1227.541 352.071 1230.237 356.608 1238.096 Z " fill="rgb(235,235,235)"/></g><path d=" M 349.07 1242.448 C 351.205 1246.146 349.936 1250.882 346.238 1253.017 C 342.54 1255.152 337.804 1253.883 335.669 1250.185 C 333.534 1246.487 334.803 1241.751 338.501 1239.616 C 342.199 1237.481 346.935 1238.75 349.07 1242.448 Z " fill="rgb(235,235,235)"/><path d=" M -46.751 1372.145 C -44.35 1376.305 -45.777 1381.633 -49.937 1384.035 C -54.098 1386.437 -59.425 1385.009 -61.827 1380.849 C -64.229 1376.689 -62.802 1371.361 -58.641 1368.959 C -54.481 1366.557 -49.153 1367.985 -46.751 1372.145 Z " fill="rgb(235,235,235)"/><path d=" M -31.303 1218.051 C -29.168 1221.749 -30.437 1226.485 -34.135 1228.62 C -37.833 1230.755 -42.569 1229.486 -44.704 1225.788 C -46.839 1222.09 -45.57 1217.354 -41.872 1215.219 C -38.174 1213.084 -33.438 1214.353 -31.303 1218.051 Z " fill="rgb(235,235,235)"/><path d=" M 125.437 1396.689 C 129.306 1403.392 127.007 1411.975 120.304 1415.845 C 113.601 1419.715 105.018 1417.415 101.148 1410.712 C 97.278 1404.01 99.578 1395.426 106.281 1391.556 C 112.983 1387.687 121.567 1389.986 125.437 1396.689 Z " fill="rgb(235,235,235)"/><path d=" M -42.145 1369.485 C -38.275 1376.188 -40.575 1384.772 -47.278 1388.641 C -53.981 1392.511 -62.564 1390.211 -66.434 1383.509 C -70.304 1376.806 -68.004 1368.222 -61.301 1364.352 C -54.598 1360.483 -46.015 1362.783 -42.145 1369.485 Z " fill="rgb(255,255,255)" vector-effect="non-scaling-stroke" stroke-width="1" stroke="rgb(235,235,235)" stroke-linejoin="miter" stroke-linecap="square" stroke-miterlimit="3"/></g><g><path d=" M 488.949 1528.473 L 361.387 1458.09 L 52.746 1221.925 L 7.963 1371.617 L -54.117 1170.843 L 50.675 1214.198 L 101.276 920.08 L 110.734 1179.47 L 274.238 978.298 L 480.36 1133.228 L 308.762 1083.962 L 443.702 1290.06 L 358.438 1470.268 L 270.391 1586 L 558.376 1517.117 L 443.702 1290.06 L 477.772 1123.569 L 359.784 872.553 L 274.238 978.298 L 109 852 L 98.429 909.454 L 64.588 729.067 L -4.765 586.147 L -166.227 650.116 L 64.588 729.067 L -198 865.684 L -123.221 912.941 L 82.974 913.596 L 359.784 872.553 L 64.588 729.067 L -188.54 750.305 L -79.449 1049.256 L 110.734 1179.47 L 480.36 1133.228" fill="none" vector-effect="non-scaling-stroke" stroke-width="1" stroke="rgb(132,132,132)" stroke-linejoin="miter" stroke-linecap="square" stroke-miterlimit="3"/><path d=" M 385.475 1455.259 C 388.689 1467.254 381.56 1479.602 369.565 1482.816 C 357.57 1486.03 345.222 1478.901 342.008 1466.906 C 338.794 1454.911 345.923 1442.564 357.918 1439.349 C 369.913 1436.135 382.261 1443.264 385.475 1455.259 Z " fill="rgb(132,132,132)"/><path d=" M 453.491 1287.955 C 454.705 1292.486 452.012 1297.151 447.48 1298.365 C 442.949 1299.579 438.284 1296.886 437.07 1292.355 C 435.856 1287.823 438.549 1283.159 443.08 1281.944 C 447.612 1280.73 452.276 1283.423 453.491 1287.955 Z " fill="rgb(132,132,132)"/><path d=" M 503.473 1122.894 C 507.473 1137.821 498.601 1153.187 483.674 1157.187 C 468.747 1161.187 453.381 1152.315 449.381 1137.388 C 445.381 1122.461 454.253 1107.095 469.18 1103.095 C 484.107 1099.095 499.473 1107.967 503.473 1122.894 Z " fill="rgb(132,132,132)"/><path d=" M 125.86 1170.241 C 128.003 1178.237 123.25 1186.469 115.254 1188.612 C 107.257 1190.755 99.025 1186.002 96.882 1178.005 C 94.74 1170.009 99.492 1161.777 107.489 1159.634 C 115.486 1157.491 123.718 1162.244 125.86 1170.241 Z " fill="rgb(132,132,132)"/><path d=" M 126.769 907.037 C 130.197 919.832 122.593 933.003 109.799 936.431 C 97.004 939.859 83.833 932.255 80.405 919.46 C 76.976 906.666 84.581 893.495 97.375 890.067 C 110.17 886.638 123.341 894.242 126.769 907.037 Z " fill="rgb(132,132,132)"/><path d=" M 115.751 850.461 C 116.679 853.926 114.62 857.493 111.155 858.422 C 107.689 859.35 104.122 857.291 103.194 853.826 C 102.265 850.361 104.325 846.793 107.79 845.865 C 111.255 844.936 114.822 846.996 115.751 850.461 Z " fill="rgb(132,132,132)"/><path d=" M 70.777 727.384 C 71.706 730.849 69.646 734.417 66.181 735.345 C 62.716 736.274 59.149 734.214 58.22 730.749 C 57.292 727.284 59.351 723.716 62.816 722.788 C 66.282 721.859 69.849 723.919 70.777 727.384 Z " fill="rgb(132,132,132)"/><path d=" M -156.198 646.911 C -154.27 654.108 -158.547 661.517 -165.744 663.445 C -172.941 665.373 -180.35 661.096 -182.278 653.899 C -184.207 646.702 -179.929 639.293 -172.732 637.365 C -165.535 635.437 -158.127 639.714 -156.198 646.911 Z " fill="rgb(132,132,132)"/><path d=" M 9.594 581.781 C 11.665 589.511 7.071 597.469 -0.659 599.54 C -8.389 601.611 -16.347 597.017 -18.418 589.287 C -20.489 581.557 -15.895 573.6 -8.165 571.528 C -0.435 569.457 7.523 574.051 9.594 581.781 Z " fill="rgb(255,255,255)" vector-effect="non-scaling-stroke" stroke-width="5" stroke="rgb(132,132,132)" stroke-linejoin="miter" stroke-linecap="square" stroke-miterlimit="3"/><path d=" M 3.799 583.334 C 5.013 587.866 2.32 592.53 -2.212 593.745 C -6.743 594.959 -11.408 592.266 -12.622 587.734 C -13.836 583.203 -11.143 578.538 -6.612 577.324 C -2.08 576.11 2.584 578.803 3.799 583.334 Z " fill="rgb(132,132,132)"/><path d=" M 77.153 1216.421 C 80.438 1228.682 73.151 1241.304 60.889 1244.59 C 48.628 1247.875 36.006 1240.588 32.72 1228.326 C 29.435 1216.065 36.722 1203.443 48.984 1200.157 C 61.245 1196.872 73.867 1204.159 77.153 1216.421 Z " fill="rgb(255,255,255)" vector-effect="non-scaling-stroke" stroke-width="5" stroke="rgb(132,132,132)" stroke-linejoin="miter" stroke-linecap="square" stroke-miterlimit="3"/><path d=" M 67.96 1218.884 C 69.886 1226.072 65.614 1233.471 58.426 1235.397 C 51.238 1237.323 43.839 1233.051 41.913 1225.863 C 39.987 1218.675 44.259 1211.276 51.447 1209.35 C 58.635 1207.424 66.034 1211.696 67.96 1218.884 Z " fill="rgb(132,132,132)"/><path d=" M 319.387 1081.115 C 321.244 1088.046 317.125 1095.18 310.195 1097.037 C 303.264 1098.894 296.13 1094.775 294.273 1087.845 C 292.416 1080.914 296.535 1073.78 303.465 1071.923 C 310.396 1070.066 317.53 1074.185 319.387 1081.115 Z " fill="rgb(132,132,132)"/><path d=" M 284.863 975.451 C 286.434 981.315 282.949 987.351 277.085 988.923 C 271.22 990.494 265.184 987.009 263.612 981.145 C 262.041 975.28 265.526 969.244 271.391 967.672 C 277.255 966.101 283.291 969.586 284.863 975.451 Z " fill="rgb(132,132,132)"/><path d=" M 367.511 870.483 C 368.511 874.215 366.293 878.056 362.562 879.056 C 358.83 880.056 354.988 877.838 353.988 874.106 C 352.988 870.375 355.206 866.533 358.938 865.533 C 362.67 864.533 366.511 866.751 367.511 870.483 Z " fill="rgb(132,132,132)"/></g></g><g style="isolation:isolate"><g><path d=" M 1508 -18 L 1613 83 L 1850 391 L 1932 258 L 1940 468 L 1850 399 L 1725 670 L 1783 417 L 1573 569 L 1414 366 L 1567 458 L 1490 224 L 1619 72 L 1734 -17 L 1438 -25 L 1490 224 L 1414 376 L 1463 649 L 1573 569 L 1700 735 L 1725 681 L 1711 864 L 1741 1020 L 1913.516 1000 L 1711 864 L 2000 800 L 1940 735 L 1741 681 L 1463 649 L 1711 864 L 1961 909 L 1933 592 L 1783 417 L 1414 366" fill="none" vector-effect="non-scaling-stroke" stroke-width="1" stroke="rgb(132,132,132)" stroke-linejoin="miter" stroke-linecap="square" stroke-miterlimit="3"/><circle vector-effect="non-scaling-stroke" cx="1611.5" cy="79.5" r="22.5" fill="rgb(132,132,132)"/><circle vector-effect="non-scaling-stroke" cx="1488.5" cy="223.5" r="8.5" fill="rgb(132,132,132)"/><circle vector-effect="non-scaling-stroke" cx="1417.0000000000002" cy="370" r="28" fill="rgb(132,132,132)"/><circle vector-effect="non-scaling-stroke" cx="1780.999999999999" cy="421.9999999999999" r="15" fill="rgb(132,132,132)"/><circle vector-effect="non-scaling-stroke" cx="1720.9999999999995" cy="676" r="24.000000000000227" fill="rgb(132,132,132)"/><circle vector-effect="non-scaling-stroke" cx="1699.5" cy="733.5" r="6.5" fill="rgb(132,132,132)"/><circle vector-effect="non-scaling-stroke" cx="1710.5000000000002" cy="863.5" r="6.5" fill="rgb(132,132,132)"/><circle vector-effect="non-scaling-stroke" cx="1916.5" cy="1000.5" r="13.5" fill="rgb(132,132,132)"/><circle vector-effect="non-scaling-stroke" cx="1740.5000000000005" cy="1020.5000000000002" r="14.5" fill="rgb(255,255,255)" stroke-width="5" stroke="rgb(132,132,132)" stroke-linejoin="miter" stroke-linecap="square" stroke-miterlimit="3"/><circle vector-effect="non-scaling-stroke" cx="1740.5000000000005" cy="1020.5000000000002" r="8.499999999999773" fill="rgb(132,132,132)"/><circle vector-effect="non-scaling-stroke" cx="1848" cy="390.00000000000006" r="23" fill="rgb(255,255,255)" stroke-width="5" stroke="rgb(132,132,132)" stroke-linejoin="miter" stroke-linecap="square" stroke-miterlimit="3"/><circle vector-effect="non-scaling-stroke" cx="1848.0000000000011" cy="390.00000000000085" r="13.48275862068931" fill="rgb(132,132,132)"/><circle vector-effect="non-scaling-stroke" cx="1569.0000000000002" cy="458.0000000000001" r="13.000000000000227" fill="rgb(132,132,132)"/><circle vector-effect="non-scaling-stroke" cx="1572.999999999999" cy="569.0000000000002" r="11.000000000000455" fill="rgb(132,132,132)"/><circle vector-effect="non-scaling-stroke" cx="1461.9999999999993" cy="648.9999999999994" r="7.000000000000455" fill="rgb(132,132,132)"/></g></g></g></svg>