<?xml version="1.0" encoding="UTF-8" standalone="no"?><!-- Generator: Gravit.io --><svg xmlns="http://www.w3.org/2000/svg" xmlns:xlink="http://www.w3.org/1999/xlink" style="isolation:isolate" viewBox="0 0 1920 1280" width="1920pt" height="1280pt"><defs><clipPath id="_clipPath_J4TfRv9fT5JVpmWmDiDofuNTu773PTQ0"><rect width="1920" height="1280"/></clipPath></defs><g clip-path="url(#_clipPath_J4TfRv9fT5JVpmWmDiDofuNTu773PTQ0)"><path d=" M 1843.989 919.236 C 1843.989 930.264 1834.745 939.192 1823.333 939.192 C 1811.918 939.192 1802.666 930.264 1802.666 919.236 C 1802.666 908.211 1811.918 899.283 1823.333 899.283 C 1834.745 899.283 1843.989 908.211 1843.989 919.236 Z " fill="rgb(3,155,229)"/><path d=" M 1894.499 919.236 C 1894.499 930.264 1885.255 939.192 1873.846 939.192 C 1862.423 939.192 1853.168 930.264 1853.168 919.236 C 1853.168 908.211 1862.423 899.283 1873.846 899.283 C 1885.255 899.283 1894.499 908.211 1894.499 919.236 Z " fill="rgb(3,155,229)"/><path d=" M 1894.499 966.898 C 1894.499 977.926 1885.255 986.854 1873.846 986.854 C 1862.423 986.854 1853.168 977.926 1853.168 966.898 C 1853.168 955.879 1862.423 946.945 1873.846 946.945 C 1885.255 946.945 1894.499 955.879 1894.499 966.898 Z " fill="rgb(3,155,229)"/><path d=" M 1843.989 966.898 C 1843.989 977.926 1834.745 986.854 1823.333 986.854 C 1811.918 986.854 1802.666 977.926 1802.666 966.898 C 1802.666 955.879 1811.918 946.945 1823.333 946.945 C 1834.745 946.945 1843.989 955.879 1843.989 966.898 Z " fill="rgb(3,155,229)"/><path d=" M 1467.711 319.299 C 1467.711 329.33 1459.585 337.46 1449.553 337.46 C 1439.527 337.46 1431.395 329.33 1431.395 319.299 C 1431.395 309.267 1439.527 301.138 1449.553 301.138 C 1459.585 301.138 1467.711 309.267 1467.711 319.299 Z " fill="rgb(3,155,229)"/><path d=" M 1512.097 319.299 C 1512.097 329.33 1503.981 337.46 1493.95 337.46 C 1483.907 337.46 1475.775 329.33 1475.775 319.299 C 1475.775 309.267 1483.907 301.138 1493.95 301.138 C 1503.981 301.138 1512.097 309.267 1512.097 319.299 Z " fill="rgb(3,155,229)"/><path d=" M 1512.097 362.674 C 1512.097 372.711 1503.981 380.835 1493.95 380.835 C 1483.907 380.835 1475.775 372.711 1475.775 362.674 C 1475.775 352.645 1483.907 344.516 1493.95 344.516 C 1503.981 344.516 1512.097 352.645 1512.097 362.674 Z " fill="rgb(3,155,229)"/><path d=" M 1467.711 362.674 C 1467.711 372.711 1459.585 380.835 1449.553 380.835 C 1439.527 380.835 1431.395 372.711 1431.395 362.674 C 1431.395 352.645 1439.527 344.516 1449.553 344.516 C 1459.585 344.516 1467.711 352.645 1467.711 362.674 Z " fill="rgb(3,155,229)"/><path d=" M 1675.181 521.782 C 1669.892 516.502 1664.757 504.684 1664.757 504.684 C 1664.757 504.684 1659.657 516.502 1654.387 521.782 C 1648.064 528.103 1637.385 532.141 1637.385 532.141 C 1637.385 532.141 1648.064 536.181 1654.387 542.504 C 1659.657 547.777 1664.757 559.587 1664.757 559.587 C 1664.757 559.587 1669.892 547.777 1675.181 542.504 C 1681.499 536.181 1692.211 532.141 1692.211 532.141 C 1692.211 532.141 1681.499 528.103 1675.181 521.782 Z " fill="rgb(123,31,162)"/><path d=" M 1730.669 923.957 C 1725.38 918.685 1720.242 906.861 1720.242 906.861 C 1720.242 906.861 1715.148 918.685 1709.879 923.957 C 1703.55 930.281 1692.873 934.318 1692.873 934.318 C 1692.873 934.318 1703.55 938.356 1709.879 944.685 C 1715.148 949.957 1720.242 961.767 1720.242 961.767 C 1720.242 961.767 1725.38 949.957 1730.669 944.685 C 1736.99 938.356 1747.7 934.318 1747.7 934.318 C 1747.7 934.318 1736.99 930.281 1730.669 923.957 Z " fill="rgb(123,31,162)"/><path d=" M 1835.455 292.377 C 1825.668 282.62 1816.161 260.734 1816.161 260.734 C 1816.161 260.734 1806.725 282.62 1796.954 292.377 C 1785.24 304.077 1765.492 311.562 1765.492 311.562 C 1765.492 311.562 1785.24 319.038 1796.954 330.755 C 1806.725 340.512 1816.161 362.389 1816.161 362.389 C 1816.161 362.389 1825.668 340.512 1835.455 330.755 C 1847.15 319.038 1866.977 311.562 1866.977 311.562 C 1866.977 311.562 1847.15 304.077 1835.455 292.377 Z " fill="rgb(123,31,162)"/><path d=" M 1861.902 169.508 C 1861.902 176.883 1855.918 182.853 1848.571 182.853 C 1841.188 182.853 1835.227 176.883 1835.227 169.508 C 1835.227 162.142 1841.188 156.172 1848.571 156.172 C 1855.918 156.172 1861.902 162.142 1861.902 169.508 Z " fill="rgb(3,155,229)"/><path d=" M 1894.499 169.508 C 1894.499 176.883 1888.527 182.853 1881.163 182.853 C 1873.799 182.853 1867.813 176.883 1867.813 169.508 C 1867.813 162.142 1873.799 156.172 1881.163 156.172 C 1888.527 156.172 1894.499 162.142 1894.499 169.508 Z " fill="rgb(3,155,229)"/><path d=" M 1894.499 201.373 C 1894.499 208.742 1888.527 214.712 1881.163 214.712 C 1873.799 214.712 1867.813 208.742 1867.813 201.373 C 1867.813 194.006 1873.799 188.031 1881.163 188.031 C 1888.527 188.031 1894.499 194.006 1894.499 201.373 Z " fill="rgb(3,155,229)"/><path d=" M 1861.902 201.373 C 1861.902 208.742 1855.918 214.712 1848.571 214.712 C 1841.188 214.712 1835.227 208.742 1835.227 201.373 C 1835.227 194.006 1841.188 188.031 1848.571 188.031 C 1855.918 188.031 1861.902 194.006 1861.902 201.373 Z " fill="rgb(3,155,229)"/><path d=" M 1624.117 677.144 C 1624.117 682.963 1619.394 687.675 1613.594 687.675 C 1607.768 687.675 1603.06 682.963 1603.06 677.144 C 1603.06 671.326 1607.768 666.613 1613.594 666.613 C 1619.394 666.613 1624.117 671.326 1624.117 677.144 Z " fill="rgb(3,155,229)"/><path d=" M 1649.853 677.144 C 1649.853 682.963 1645.138 687.675 1639.319 687.675 C 1633.515 687.675 1628.788 682.963 1628.788 677.144 C 1628.788 671.326 1633.515 666.613 1639.319 666.613 C 1645.138 666.613 1649.853 671.326 1649.853 677.144 Z " fill="rgb(3,155,229)"/><path d=" M 1649.853 702.296 C 1649.853 708.115 1645.138 712.825 1639.319 712.825 C 1633.515 712.825 1628.788 708.115 1628.788 702.296 C 1628.788 696.486 1633.515 691.771 1639.319 691.771 C 1645.138 691.771 1649.853 696.486 1649.853 702.296 Z " fill="rgb(3,155,229)"/><path d=" M 1624.117 702.296 C 1624.117 708.115 1619.394 712.825 1613.594 712.825 C 1607.768 712.825 1603.06 708.115 1603.06 702.296 C 1603.06 696.486 1607.768 691.771 1613.594 691.771 C 1619.394 691.771 1624.117 696.486 1624.117 702.296 Z " fill="rgb(3,155,229)"/><path d=" M 1313.648 195.54 L 1360.15 116.806 L 1406.65 195.54 L 1313.648 195.54 Z " fill="rgb(183,28,28)"/><path d=" M 1550.007 772.16 C 1538.861 772.16 1529.823 781.196 1529.823 792.342 C 1529.823 803.476 1538.861 812.514 1550.007 812.514 C 1561.147 812.514 1570.191 803.476 1570.191 792.342 C 1570.191 781.196 1561.147 772.16 1550.007 772.16 Z  M 1550.007 805.368 C 1542.808 805.368 1536.976 799.538 1536.976 792.342 C 1536.976 785.148 1542.808 779.316 1550.007 779.316 C 1557.195 779.316 1563.033 785.148 1563.033 792.342 C 1563.033 799.538 1557.195 805.368 1550.007 805.368 Z " fill="rgb(67,160,71)"/><path d=" M 1862.962 503.003 C 1845.558 503.003 1831.421 517.122 1831.421 534.536 C 1831.421 551.94 1845.558 566.061 1862.962 566.061 C 1880.371 566.061 1894.5 551.94 1894.5 534.536 C 1894.5 517.122 1880.371 503.003 1862.962 503.003 Z  M 1862.962 554.885 C 1851.717 554.885 1842.602 545.781 1842.602 534.536 C 1842.602 523.302 1851.717 514.182 1862.962 514.182 C 1874.198 514.182 1883.316 523.302 1883.316 534.536 C 1883.316 545.781 1874.198 554.885 1862.962 554.885 Z " fill="rgb(67,160,71)"/><path d=" M 1790.879 25.681 C 1775.762 25.681 1763.502 37.936 1763.502 53.056 C 1763.502 68.165 1775.762 80.42 1790.879 80.42 C 1805.991 80.42 1818.254 68.165 1818.254 53.056 C 1818.254 37.936 1805.991 25.681 1790.879 25.681 Z  M 1790.879 70.721 C 1781.114 70.721 1773.212 62.819 1773.212 53.056 C 1773.212 43.299 1781.114 35.386 1790.879 35.386 C 1800.634 35.386 1808.549 43.299 1808.549 53.056 C 1808.549 62.819 1800.634 70.721 1790.879 70.721 Z " fill="rgb(67,160,71)"/><path d=" M 1405.936 43.238 L 1421.965 59.44 L 1405.92 75.32 L 1423.477 93.078 L 1457.285 59.648 L 1423.708 25.681 L 1405.936 43.238 Z " fill-rule="evenodd" fill="rgb(38,166,154)"/><path d=" M 1455.559 43.521 L 1471.577 59.734 L 1455.521 75.603 L 1473.078 93.358 L 1506.889 59.931 L 1473.314 25.964 L 1455.559 43.521 Z " fill-rule="evenodd" fill="rgb(38,166,154)"/><path d=" M 1836.964 787.883 L 1846.104 797.113 L 1836.953 806.168 L 1846.955 816.284 L 1866.227 797.234 L 1847.092 777.876 L 1836.964 787.883 Z " fill-rule="evenodd" fill="rgb(38,166,154)"/><path d=" M 1865.239 788.046 L 1874.37 797.282 L 1865.225 806.326 L 1875.224 816.442 L 1894.499 797.395 L 1875.366 778.04 L 1865.239 788.046 Z " fill-rule="evenodd" fill="rgb(38,166,154)"/><path d=" M 1473.168 774.246 L 1464.564 782.85 L 1455.943 774.246 L 1446.845 783.344 L 1455.458 791.959 L 1446.845 800.575 L 1455.943 809.676 L 1464.564 801.061 L 1473.168 809.676 L 1482.267 800.575 L 1473.663 791.959 L 1482.267 783.344 L 1473.168 774.246 Z " fill="rgb(255,152,0)"/><path d=" M 1745.958 389.931 L 1730.857 405.032 L 1715.745 389.931 L 1699.793 405.897 L 1714.889 421.006 L 1699.793 436.112 L 1715.745 452.072 L 1730.857 436.968 L 1745.958 452.072 L 1761.915 436.112 L 1746.817 421.006 L 1761.915 405.897 L 1745.958 389.931 Z " fill="rgb(255,152,0)"/><path d=" M 1766.022 780.605 L 1752.843 780.605 L 1752.843 767.184 L 1738.711 767.184 L 1738.711 780.605 L 1725.534 780.605 L 1725.534 794.495 L 1738.711 794.495 L 1738.711 807.914 L 1752.843 807.914 L 1752.843 794.495 L 1766.022 794.495 L 1766.022 780.605 Z " fill="rgb(123,31,162)"/><path d=" M 1893.628 673.904 L 1889.284 666.378 L 1875.174 674.529 L 1875.174 658.232 L 1866.473 658.232 L 1866.473 674.532 L 1852.366 666.381 L 1848.024 673.909 L 1862.134 682.058 L 1848.026 690.196 L 1852.374 697.724 L 1866.473 689.575 L 1866.473 705.873 L 1875.174 705.873 L 1875.174 689.581 L 1889.278 697.724 L 1893.623 690.198 L 1879.51 682.058 L 1893.628 673.904 Z " fill="rgb(255,152,0)"/><path d=" M 1708.519 172.13 L 1695.252 149.144 L 1652.153 174.034 L 1652.153 124.266 L 1625.596 124.266 L 1625.596 174.051 L 1582.498 149.152 L 1569.23 172.138 L 1612.332 197.026 L 1569.244 221.89 L 1582.525 244.873 L 1625.596 219.996 L 1625.596 269.758 L 1652.153 269.758 L 1652.153 220.004 L 1695.224 244.881 L 1708.503 221.898 L 1665.404 197.026 L 1708.519 172.13 Z " fill="rgb(255,152,0)"/></g></svg>