<?xml version="1.0" encoding="UTF-8" standalone="no"?><!-- Generator: Gravit.io --><svg xmlns="http://www.w3.org/2000/svg" xmlns:xlink="http://www.w3.org/1999/xlink" style="isolation:isolate" viewBox="0 0 1920 1280" width="1920pt" height="1280pt"><defs><clipPath id="_clipPath_2TluNPQm3R2abckZAeEL1xFcmN3y8PTY"><rect width="1920" height="1280"/></clipPath></defs><g clip-path="url(#_clipPath_2TluNPQm3R2abckZAeEL1xFcmN3y8PTY)"><rect width="1920" height="1280" style="fill:rgb(0,0,0)" fill-opacity="0"/><g><path d=" M 72.159 921.236 C 72.159 932.264 81.403 941.192 92.815 941.192 C 104.23 941.192 113.482 932.264 113.482 921.236 C 113.482 910.211 104.23 901.283 92.815 901.283 C 81.403 901.283 72.159 910.211 72.159 921.236 Z " fill="rgb(255,255,255)"/><path d=" M 21.649 921.236 C 21.649 932.264 30.893 941.192 42.302 941.192 C 53.725 941.192 62.98 932.264 62.98 921.236 C 62.98 910.211 53.725 901.283 42.302 901.283 C 30.893 901.283 21.649 910.211 21.649 921.236 Z " fill="rgb(255,255,255)"/><path d=" M 21.649 968.898 C 21.649 979.926 30.893 988.854 42.302 988.854 C 53.725 988.854 62.98 979.926 62.98 968.898 C 62.98 957.879 53.725 948.945 42.302 948.945 C 30.893 948.945 21.649 957.879 21.649 968.898 Z " fill="rgb(255,255,255)"/><path d=" M 72.159 968.898 C 72.159 979.926 81.403 988.854 92.815 988.854 C 104.23 988.854 113.482 979.926 113.482 968.898 C 113.482 957.879 104.23 948.945 92.815 948.945 C 81.403 948.945 72.159 957.879 72.159 968.898 Z " fill="rgb(255,255,255)"/><path d=" M 448.437 321.299 C 448.437 331.33 456.563 339.46 466.595 339.46 C 476.621 339.46 484.753 331.33 484.753 321.299 C 484.753 311.267 476.621 303.138 466.595 303.138 C 456.563 303.138 448.437 311.267 448.437 321.299 Z " fill="rgb(255,255,255)"/><path d=" M 404.051 321.299 C 404.051 331.33 412.167 339.46 422.198 339.46 C 432.241 339.46 440.373 331.33 440.373 321.299 C 440.373 311.267 432.241 303.138 422.198 303.138 C 412.167 303.138 404.051 311.267 404.051 321.299 Z " fill="rgb(255,255,255)"/><path d=" M 404.051 364.674 C 404.051 374.711 412.167 382.835 422.198 382.835 C 432.241 382.835 440.373 374.711 440.373 364.674 C 440.373 354.645 432.241 346.516 422.198 346.516 C 412.167 346.516 404.051 354.645 404.051 364.674 Z " fill="rgb(255,255,255)"/><path d=" M 448.437 364.674 C 448.437 374.711 456.563 382.835 466.595 382.835 C 476.621 382.835 484.753 374.711 484.753 364.674 C 484.753 354.645 476.621 346.516 466.595 346.516 C 456.563 346.516 448.437 354.645 448.437 364.674 Z " fill="rgb(255,255,255)"/><path d=" M 240.967 523.782 C 246.256 518.502 251.391 506.684 251.391 506.684 C 251.391 506.684 256.491 518.502 261.761 523.782 C 268.084 530.103 278.763 534.141 278.763 534.141 C 278.763 534.141 268.084 538.181 261.761 544.504 C 256.491 549.777 251.391 561.587 251.391 561.587 C 251.391 561.587 246.256 549.777 240.967 544.504 C 234.649 538.181 223.937 534.141 223.937 534.141 C 223.937 534.141 234.649 530.103 240.967 523.782 Z " fill="rgb(255,255,255)"/><path d=" M 185.479 925.957 C 190.768 920.685 195.906 908.861 195.906 908.861 C 195.906 908.861 201 920.685 206.269 925.957 C 212.598 932.281 223.275 936.318 223.275 936.318 C 223.275 936.318 212.598 940.356 206.269 946.685 C 201 951.957 195.906 963.767 195.906 963.767 C 195.906 963.767 190.768 951.957 185.479 946.685 C 179.158 940.356 168.448 936.318 168.448 936.318 C 168.448 936.318 179.158 932.281 185.479 925.957 Z " fill="rgb(255,255,255)"/><path d=" M 80.693 294.377 C 90.48 284.62 99.987 262.734 99.987 262.734 C 99.987 262.734 109.423 284.62 119.194 294.377 C 130.908 306.077 150.656 313.562 150.656 313.562 C 150.656 313.562 130.908 321.038 119.194 332.755 C 109.423 342.512 99.987 364.389 99.987 364.389 C 99.987 364.389 90.48 342.512 80.693 332.755 C 68.998 321.038 49.171 313.562 49.171 313.562 C 49.171 313.562 68.998 306.077 80.693 294.377 Z " fill="rgb(255,255,255)"/><path d=" M 54.246 171.508 C 54.246 178.883 60.23 184.853 67.577 184.853 C 74.96 184.853 80.921 178.883 80.921 171.508 C 80.921 164.142 74.96 158.172 67.577 158.172 C 60.23 158.172 54.246 164.142 54.246 171.508 Z " fill="rgb(255,255,255)"/><path d=" M 21.649 171.508 C 21.649 178.883 27.621 184.853 34.985 184.853 C 42.349 184.853 48.335 178.883 48.335 171.508 C 48.335 164.142 42.349 158.172 34.985 158.172 C 27.621 158.172 21.649 164.142 21.649 171.508 Z " fill="rgb(255,255,255)"/><path d=" M 21.649 203.373 C 21.649 210.742 27.621 216.712 34.985 216.712 C 42.349 216.712 48.335 210.742 48.335 203.373 C 48.335 196.006 42.349 190.031 34.985 190.031 C 27.621 190.031 21.649 196.006 21.649 203.373 Z " fill="rgb(255,255,255)"/><path d=" M 54.246 203.373 C 54.246 210.742 60.23 216.712 67.577 216.712 C 74.96 216.712 80.921 210.742 80.921 203.373 C 80.921 196.006 74.96 190.031 67.577 190.031 C 60.23 190.031 54.246 196.006 54.246 203.373 Z " fill="rgb(255,255,255)"/><path d=" M 292.031 679.144 C 292.031 684.963 296.754 689.675 302.554 689.675 C 308.38 689.675 313.088 684.963 313.088 679.144 C 313.088 673.326 308.38 668.613 302.554 668.613 C 296.754 668.613 292.031 673.326 292.031 679.144 Z " fill="rgb(255,255,255)"/><path d=" M 266.295 679.144 C 266.295 684.963 271.01 689.675 276.829 689.675 C 282.633 689.675 287.36 684.963 287.36 679.144 C 287.36 673.326 282.633 668.613 276.829 668.613 C 271.01 668.613 266.295 673.326 266.295 679.144 Z " fill="rgb(255,255,255)"/><path d=" M 266.295 704.296 C 266.295 710.115 271.01 714.825 276.829 714.825 C 282.633 714.825 287.36 710.115 287.36 704.296 C 287.36 698.486 282.633 693.771 276.829 693.771 C 271.01 693.771 266.295 698.486 266.295 704.296 Z " fill="rgb(255,255,255)"/><path d=" M 292.031 704.296 C 292.031 710.115 296.754 714.825 302.554 714.825 C 308.38 714.825 313.088 710.115 313.088 704.296 C 313.088 698.486 308.38 693.771 302.554 693.771 C 296.754 693.771 292.031 698.486 292.031 704.296 Z " fill="rgb(255,255,255)"/><path d=" M 602.5 197.54 L 555.998 118.806 L 509.498 197.54 L 602.5 197.54 Z " fill="rgb(255,255,255)"/><path d=" M 366.141 774.16 C 377.287 774.16 386.325 783.196 386.325 794.342 C 386.325 805.476 377.287 814.514 366.141 814.514 C 355.001 814.514 345.957 805.476 345.957 794.342 C 345.957 783.196 355.001 774.16 366.141 774.16 Z  M 366.141 807.368 C 373.34 807.368 379.172 801.538 379.172 794.342 C 379.172 787.148 373.34 781.316 366.141 781.316 C 358.953 781.316 353.115 787.148 353.115 794.342 C 353.115 801.538 358.953 807.368 366.141 807.368 Z " fill="rgb(255,255,255)"/><path d=" M 53.186 505.003 C 70.59 505.003 84.727 519.122 84.727 536.536 C 84.727 553.94 70.59 568.061 53.186 568.061 C 35.777 568.061 21.648 553.94 21.648 536.536 C 21.648 519.122 35.777 505.003 53.186 505.003 Z  M 53.186 556.885 C 64.431 556.885 73.546 547.781 73.546 536.536 C 73.546 525.302 64.431 516.182 53.186 516.182 C 41.95 516.182 32.832 525.302 32.832 536.536 C 32.832 547.781 41.95 556.885 53.186 556.885 Z " fill="rgb(255,255,255)"/><path d=" M 125.269 27.681 C 140.386 27.681 152.646 39.936 152.646 55.056 C 152.646 70.165 140.386 82.42 125.269 82.42 C 110.157 82.42 97.894 70.165 97.894 55.056 C 97.894 39.936 110.157 27.681 125.269 27.681 Z  M 125.269 72.721 C 135.034 72.721 142.936 64.819 142.936 55.056 C 142.936 45.299 135.034 37.386 125.269 37.386 C 115.514 37.386 107.599 45.299 107.599 55.056 C 107.599 64.819 115.514 72.721 125.269 72.721 Z " fill="rgb(255,255,255)"/><path d=" M 409.275 45.238 L 425.304 61.44 L 409.259 77.32 L 426.816 95.078 L 460.624 61.648 L 427.047 27.681 L 409.275 45.238 Z " fill-rule="evenodd" fill="rgb(255,255,255)"/><path d=" M 458.898 45.521 L 474.916 61.734 L 458.86 77.603 L 476.417 95.358 L 510.228 61.931 L 476.653 27.964 L 458.898 45.521 Z " fill-rule="evenodd" fill="rgb(255,255,255)"/><path d=" M 21.66 789.883 L 30.8 799.113 L 21.649 808.168 L 31.651 818.284 L 50.923 799.234 L 31.788 779.876 L 21.66 789.883 Z " fill-rule="evenodd" fill="rgb(255,255,255)"/><path d=" M 49.935 790.046 L 59.066 799.282 L 49.921 808.326 L 59.92 818.442 L 79.195 799.395 L 60.062 780.04 L 49.935 790.046 Z " fill-rule="evenodd" fill="rgb(255,255,255)"/><path d=" M 442.98 776.246 L 451.584 784.85 L 460.205 776.246 L 469.303 785.344 L 460.69 793.959 L 469.303 802.575 L 460.205 811.676 L 451.584 803.061 L 442.98 811.676 L 433.881 802.575 L 442.485 793.959 L 433.881 785.344 L 442.98 776.246 Z " fill="rgb(255,255,255)"/><path d=" M 170.19 391.931 L 185.291 407.032 L 200.403 391.931 L 216.355 407.897 L 201.259 423.006 L 216.355 438.112 L 200.403 454.072 L 185.291 438.968 L 170.19 454.072 L 154.233 438.112 L 169.331 423.006 L 154.233 407.897 L 170.19 391.931 Z " fill="rgb(255,255,255)"/><path d=" M 150.126 782.605 L 163.305 782.605 L 163.305 769.184 L 177.437 769.184 L 177.437 782.605 L 190.614 782.605 L 190.614 796.495 L 177.437 796.495 L 177.437 809.914 L 163.305 809.914 L 163.305 796.495 L 150.126 796.495 L 150.126 782.605 Z " fill="rgb(255,255,255)"/><path d=" M 22.52 675.904 L 26.864 668.378 L 40.974 676.529 L 40.974 660.232 L 49.675 660.232 L 49.675 676.532 L 63.782 668.381 L 68.124 675.909 L 54.014 684.058 L 68.122 692.196 L 63.774 699.724 L 49.675 691.575 L 49.675 707.873 L 40.974 707.873 L 40.974 691.581 L 26.87 699.724 L 22.525 692.198 L 36.638 684.058 L 22.52 675.904 Z " fill="rgb(255,255,255)"/><path d=" M 207.629 174.13 L 220.896 151.144 L 263.995 176.034 L 263.995 126.266 L 290.552 126.266 L 290.552 176.051 L 333.65 151.152 L 346.918 174.138 L 303.816 199.026 L 346.904 223.89 L 333.623 246.873 L 290.552 221.996 L 290.552 271.758 L 263.995 271.758 L 263.995 222.004 L 220.924 246.881 L 207.645 223.898 L 250.744 199.026 L 207.629 174.13 Z " fill="rgb(255,255,255)"/></g></g></svg>