<?xml version="1.0" encoding="UTF-8" standalone="no"?><!-- Generator: Gravit.io --><svg xmlns="http://www.w3.org/2000/svg" xmlns:xlink="http://www.w3.org/1999/xlink" style="isolation:isolate" viewBox="0 0 1920 1280" width="1920pt" height="1280pt"><defs><clipPath id="_clipPath_mDaHc9BSYSDo9gOjthKKo8ksRhARbREZ"><rect width="1920" height="1280"/></clipPath></defs><g clip-path="url(#_clipPath_mDaHc9BSYSDo9gOjthKKo8ksRhARbREZ)"><g><linearGradient id="_lgradient_0" x1="0.18301352604058702" y1="0.07659057915464701" x2="0.8247282564533982" y2="0.40672930850916883" gradientTransform="matrix(1600,0,0,1176.867,160,51.566)" gradientUnits="userSpaceOnUse"><stop offset="0%" stop-opacity="1" style="stop-color:rgb(2,204,255)"/><stop offset="31.30434782608696%" stop-opacity="1" style="stop-color:rgb(14,174,227)"/><stop offset="66.08695652173913%" stop-opacity="1" style="stop-color:rgb(0,122,167)"/><stop offset="97.82608695652173%" stop-opacity="1" style="stop-color:rgb(4,57,104)"/></linearGradient><path d=" M 358.107 756.216 C 352.674 629.784 195.207 650.325 168.999 551.996 C 125.834 390.041 244.282 257.049 389.155 185.44 C 909.367 -71.693 1249.623 98.693 1456.352 223.815 C 1663.081 348.937 1803.96 837.429 1747.45 919.385 C 1690.938 1001.341 1524.964 1142.307 1421.011 1148.816 C 1317.059 1155.323 1138.435 1257.149 1056.558 1220.498 C 974.681 1183.847 941.881 1081.474 829.297 1083.567 C 716.713 1085.661 585.985 1129.694 455.357 1054.566 Q 332.166 983.716 358.107 756.216 Z " fill="url(#_lgradient_0)"/><clipPath id="_clipPath_ititOfN4KQUbdRAPg5U0n7AAP4ZPvzDK"><path d=" M 358.107 756.216 C 352.674 629.784 195.207 650.325 168.999 551.996 C 125.834 390.041 244.282 257.049 389.155 185.44 C 909.367 -71.693 1249.623 98.693 1456.352 223.815 C 1663.081 348.937 1803.96 837.429 1747.45 919.385 C 1690.938 1001.341 1524.964 1142.307 1421.011 1148.816 C 1317.059 1155.323 1138.435 1257.149 1056.558 1220.498 C 974.681 1183.847 941.881 1081.474 829.297 1083.567 C 716.713 1085.661 585.985 1129.694 455.357 1054.566 Q 332.166 983.716 358.107 756.216 Z " fill="url(#_lgradient_0)"/></clipPath><g clip-path="url(#_clipPath_ititOfN4KQUbdRAPg5U0n7AAP4ZPvzDK)"><g opacity="0.32"><path d=" M 590.648 178.715 C 590.725 177.793 590.765 176.861 590.765 175.918 C 590.765 157.891 576.13 143.255 558.102 143.255 C 540.076 143.255 525.439 157.891 525.439 175.918 L 525.439 175.918 C 525.439 181.94 527.073 187.584 529.919 192.43 L 362.237 359.058 C 360.392 357.875 358.422 356.873 356.35 356.074 L 356.35 356.074 L 485.045 12.188 L 1109.717 37.185 L 370.786 367.009 C 369.781 365.668 368.674 364.405 367.479 363.235 L 533.914 197.859 C 539.892 204.445 548.518 208.582 558.102 208.582 C 572.886 208.582 585.389 198.74 589.41 185.256 L 960.102 266.635 C 960.034 267.495 960 268.365 960 269.243 L 960 269.243 C 960 286.174 972.912 300.115 989.417 301.746 L 1029.635 884.798 C 1028.225 884.611 1026.788 884.515 1025.327 884.515 C 1008.554 884.515 994.718 897.185 992.872 913.467 L 63.66 685.321 L 321.988 410.101 L 321.988 410.101 C 327.862 415.755 335.844 419.233 344.632 419.233 C 355.683 419.233 365.461 413.734 371.372 405.322 L 1128.008 882.995 L 1128.008 882.995 L 1056.158 906.373 C 1055.217 903.692 1053.936 901.169 1052.367 898.859 L 1323.021 300.497 L 1323.021 300.497 C 1326.032 301.413 1329.226 301.906 1332.535 301.906 C 1332.575 301.906 1332.614 301.906 1332.654 301.906 L 1392.536 986.272 C 1381.437 988.094 1372.214 995.521 1367.873 1005.546 L 1313.457 992.184 L 1143.567 884.928 L 1556.233 750.622 L 1590.523 828.121 L 1590.523 828.121 L 1429.397 1009.968 C 1425.752 996.485 1413.683 986.448 1399.195 985.865 L 1339.288 301.206 C 1344.899 300.025 1349.982 297.401 1354.13 293.741 L 1553.526 744.489 L 1136.248 880.302 L 374.635 399.495 C 375.141 398.32 375.583 397.111 375.951 395.87 L 894.766 538.748 C 885.455 544.505 879.246 554.808 879.246 566.549 L 879.246 566.549 C 879.246 572.891 881.058 578.815 884.191 583.827 L 508.248 908.409 C 503.642 905.924 498.372 904.513 492.775 904.513 C 474.749 904.513 460.112 919.149 460.112 937.177 L 460.112 937.177 C 460.112 955.204 474.749 969.84 492.775 969.84 C 506.592 969.84 518.418 961.242 523.187 949.11 L 1365.226 1017.154 C 1365.208 1017.601 1365.198 1018.05 1365.198 1018.502 L 1365.198 1018.502 C 1365.198 1020.831 1365.442 1023.104 1365.908 1025.296 L 1331.242 1003.41 L 1331.242 1003.41 L 1365.865 1011.912 C 1365.96 1011.452 1366.062 1010.996 1366.176 1010.544 L 524.995 942.571 C 525.287 940.816 525.439 939.014 525.439 937.177 C 525.439 927.218 520.972 918.293 513.934 912.299 L 888.285 589.098 C 894.235 595.329 902.623 599.213 911.91 599.213 C 929.937 599.213 944.573 584.577 944.573 566.549 C 944.573 558.979 941.992 552.008 937.663 546.466 L 940.147 544.322 L 934.204 542.685 L 934.204 542.685 C 928.364 537.228 920.525 533.886 911.91 533.886 C 909.522 533.886 907.194 534.143 904.953 534.63 L 377.184 389.284 C 377.259 388.389 377.296 387.484 377.296 386.57 C 377.296 384.656 377.131 382.782 376.815 380.958 L 1300.307 274.59 C 1301.969 284.658 1308.241 293.18 1316.88 297.912 L 1047.575 893.272 C 1044.386 890.304 1040.605 887.964 1036.428 886.454 L 996.109 301.726 C 1012.52 300.002 1025.327 286.106 1025.327 269.243 C 1025.327 251.215 1010.691 236.579 992.663 236.579 C 984.083 236.579 976.271 239.895 970.44 245.314 L 969.117 239.272 L 965.851 239.992 L 965.851 239.992 L 387.868 366.686 L 1112.317 43.318 L 1300.675 262.017 C 1300.242 263.932 1299.977 265.912 1299.897 267.939 L 393.014 372.379 L 967.291 246.498 L 969.763 245.961 C 965.843 249.818 962.891 254.655 961.306 260.073 L 590.648 178.715 L 590.648 178.715 L 590.648 178.715 Z  M 317.65 404.973 C 314.393 400.208 312.364 394.538 312.021 388.421 L 262.92 394.084 L 312.132 383.291 L 312.132 383.291 C 313.778 366.801 327.711 353.906 344.632 353.906 C 346.423 353.906 348.179 354.05 349.891 354.329 L 478.033 11.908 L 400.88 8.828 L 511.803 -59.312 L 487.512 5.615 L 1247.423 36.012 L 1336.235 236.787 C 1352.522 238.627 1365.198 252.466 1365.198 269.243 C 1365.198 276.367 1362.913 282.961 1359.035 288.333 L 1559.899 742.422 L 1709.631 693.681 L 1815.9 573.759 L 1822.073 657.098 L 1944.114 617.368 L 1947.274 616.342 L 1949.341 622.674 L 1946.168 623.714 L 1822.58 663.937 L 1864.669 1232.147 L 1468.801 1365.521 L 1742.348 1171.34 L 1593.482 834.827 L 1430.524 1018.746 C 1430.404 1035.25 1418.016 1048.86 1402.033 1050.901 L 1399.142 1054.165 L 1394.042 1050.944 C 1390.35 1050.513 1386.846 1049.465 1383.634 1047.907 L 1114.663 1497.881 L 239.189 1172.273 L 994.043 926.595 C 993.436 924.579 993.019 922.481 992.812 920.322 L 50.995 689.081 L 317.65 404.973 L 317.65 404.973 L 317.65 404.973 Z  M 1377.964 1044.399 C 1374.911 1042.049 1372.283 1039.171 1370.219 1035.902 L 1310.817 998.397 L 1052.685 935.019 L 1052.685 935.019 C 1046.851 943.943 1036.772 949.842 1025.327 949.842 C 1012.942 949.842 1002.158 942.935 996.62 932.765 L 996.62 932.765 L 259.427 1172.7 L 1111.783 1489.695 L 1377.964 1044.399 L 1377.964 1044.399 L 1377.964 1044.399 Z  M 1057.709 912.876 C 1057.894 914.284 1057.99 915.72 1057.99 917.179 C 1057.99 921.315 1057.219 925.275 1055.813 928.919 L 1293.019 987.158 L 1135.328 887.621 L 1057.709 912.876 L 1057.709 912.876 L 1057.709 912.876 L 1057.709 912.876 Z  M 1303.242 254.784 C 1308.073 245.024 1317.639 238.018 1328.93 236.776 L 1242.997 42.518 L 1116.05 37.439 L 1116.05 37.439 L 1303.242 254.784 L 1303.242 254.784 L 1303.242 254.784 Z  M 480.499 5.335 L 498.764 -43.473 L 423.038 3.042 L 480.499 5.335 L 480.499 5.335 L 480.499 5.335 L 480.499 5.335 Z  M 1816.047 666.057 L 1713.417 699.467 L 1598.349 829.334 L 1750.64 1173.633 L 1509.571 1344.75 L 1857.63 1227.481 L 1816.047 666.057 L 1816.047 666.057 L 1816.047 666.057 L 1816.047 666.057 Z  M 1562.605 748.555 L 1595.376 822.641 L 1700.912 703.533 L 1562.605 748.555 L 1562.605 748.555 L 1562.605 748.555 L 1562.605 748.555 Z  M 1722.15 689.614 L 1815.541 659.217 L 1810.408 589.998 L 1722.15 689.614 L 1722.15 689.614 L 1722.15 689.614 L 1722.15 689.614 Z " fill-rule="evenodd" fill="rgb(255,255,255)"/></g></g></g><g><path d=" M 474.62 377.693 L 598.793 377.693 L 598.793 711.236 L 791.452 711.236 L 723.228 843.895 L 474.62 843.895 L 474.62 377.693 L 474.62 377.693 Z " fill="rgb(255,255,255)"/><path d=" M 840.726 377.693 L 968.899 377.693 L 968.899 843.895 L 840.726 843.895 L 840.726 377.693 L 840.726 377.693 Z " fill="rgb(255,255,255)"/><path d=" M 999.22 843.895 L 1135.669 843.895 L 1279.699 570.997 L 1355.503 722.607 L 1239.112 722.607 L 1171.852 843.895 L 1545.017 843.895 C 1397.955 512.248 1350.205 354.121 1279.699 377.693 C 1211.555 378.154 1166.75 534.99 999.22 843.895 Z " fill="rgb(255,255,255)"/></g></g></svg>