<?xml version="1.0" encoding="UTF-8" standalone="no"?><!-- Generator: Gravit.io --><svg xmlns="http://www.w3.org/2000/svg" xmlns:xlink="http://www.w3.org/1999/xlink" style="isolation:isolate" viewBox="0 0 1920 1280" width="1920pt" height="1280pt"><defs><clipPath id="_clipPath_3LikDybO7eryEiekO064HbrxEOmnft5V"><rect width="1920" height="1280"/></clipPath></defs><g clip-path="url(#_clipPath_3LikDybO7eryEiekO064HbrxEOmnft5V)"><linearGradient id="_lgradient_1" x1="0.14644660940672616" y1="0.14644660940672632" x2="0.8535533905932738" y2="0.8535533905932737" gradientTransform="matrix(1218.534,185.458,-129.4,850.209,456.15,82.166)" gradientUnits="userSpaceOnUse"><stop offset="0%" stop-opacity="1" style="stop-color:rgb(2,204,255)"/><stop offset="31.30434782608696%" stop-opacity="1" style="stop-color:rgb(14,174,227)"/><stop offset="66.08695652173913%" stop-opacity="1" style="stop-color:rgb(0,122,167)"/><stop offset="97.82608695652173%" stop-opacity="1" style="stop-color:rgb(4,57,104)"/></linearGradient><path d=" M 544.607 694.766 C 540.532 599.933 422.42 615.34 402.762 541.586 C 370.385 420.108 459.23 320.354 567.895 266.642 C 958.093 73.773 1213.31 201.575 1368.372 295.426 C 1523.434 389.277 1629.104 755.682 1586.717 817.155 C 1544.329 878.628 1419.836 984.363 1341.864 989.245 C 1263.892 994.126 1129.911 1070.503 1068.497 1043.012 C 1007.083 1015.521 982.481 938.734 898.034 940.304 C 813.588 941.874 715.532 974.902 617.552 918.551 Q 525.149 865.408 544.607 694.766 Z " fill="url(#_lgradient_1)"/><clipPath id="_clipPath_ZJZHVgxuhqWVn6ndcEgmQplGjbhRfaZG"><path d=" M 544.607 694.766 C 540.532 599.933 422.42 615.34 402.762 541.586 C 370.385 420.108 459.23 320.354 567.895 266.642 C 958.093 73.773 1213.31 201.575 1368.372 295.426 C 1523.434 389.277 1629.104 755.682 1586.717 817.155 C 1544.329 878.628 1419.836 984.363 1341.864 989.245 C 1263.892 994.126 1129.911 1070.503 1068.497 1043.012 C 1007.083 1015.521 982.481 938.734 898.034 940.304 C 813.588 941.874 715.532 974.902 617.552 918.551 Q 525.149 865.408 544.607 694.766 Z " fill="url(#_lgradient_1)"/></clipPath><g clip-path="url(#_clipPath_ZJZHVgxuhqWVn6ndcEgmQplGjbhRfaZG)"><g opacity="0.32"><path d=" M 719.03 261.598 C 719.088 260.906 719.118 260.207 719.118 259.5 C 719.118 245.978 708.14 235 694.618 235 C 681.097 235 670.118 245.978 670.118 259.5 L 670.118 259.5 C 670.118 264.017 671.344 268.25 673.479 271.885 L 547.705 396.868 C 546.321 395.981 544.843 395.229 543.289 394.63 L 543.289 394.63 L 639.82 136.69 L 1108.37 155.44 L 554.117 402.832 C 553.363 401.826 552.533 400.879 551.637 400.001 L 676.475 275.957 C 680.959 280.897 687.429 284 694.618 284 C 705.707 284 715.085 276.618 718.101 266.504 L 996.148 327.544 C 996.097 328.189 996.071 328.842 996.071 329.5 L 996.071 329.5 C 996.071 342.2 1005.756 352.657 1018.136 353.88 L 1048.303 791.212 C 1047.245 791.072 1046.167 791 1045.071 791 C 1032.49 791 1022.112 800.503 1020.728 812.716 L 323.75 641.59 L 517.515 435.154 L 517.515 435.154 C 521.921 439.395 527.908 442.004 534.5 442.004 C 542.789 442.004 550.123 437.879 554.557 431.57 L 1122.09 789.86 L 1122.09 789.86 L 1068.197 807.395 C 1067.491 805.384 1066.53 803.492 1065.353 801.759 L 1268.364 352.943 L 1268.364 352.943 C 1270.622 353.63 1273.018 354 1275.5 354 C 1275.53 354 1275.559 354 1275.589 354 L 1320.505 867.325 C 1312.18 868.692 1305.262 874.263 1302.006 881.782 L 1261.19 871.76 L 1133.76 791.31 L 1443.29 690.57 L 1469.01 748.7 L 1469.01 748.7 L 1348.154 885.099 C 1345.42 874.986 1336.367 867.457 1325.5 867.02 L 1280.565 353.475 C 1284.774 352.589 1288.587 350.621 1291.698 347.876 L 1441.26 685.97 L 1128.27 787.84 L 557.004 427.199 C 557.384 426.318 557.715 425.411 557.991 424.48 L 947.141 531.649 C 940.157 535.967 935.5 543.695 935.5 552.502 L 935.5 552.502 C 935.5 557.259 936.859 561.702 939.209 565.462 L 657.224 808.922 C 653.769 807.058 649.816 806 645.618 806 C 632.097 806 621.118 816.978 621.118 830.5 L 621.118 830.5 C 621.118 844.022 632.097 855 645.618 855 C 655.982 855 664.852 848.551 668.429 839.451 L 1300.021 890.489 C 1300.007 890.824 1300 891.161 1300 891.5 L 1300 891.5 C 1300 893.247 1300.183 894.952 1300.532 896.596 L 1274.53 880.18 L 1274.53 880.18 L 1300.5 886.557 C 1300.571 886.212 1300.648 885.87 1300.733 885.531 L 669.785 834.546 C 670.004 833.23 670.118 831.878 670.118 830.5 C 670.118 823.03 666.768 816.336 661.489 811.84 L 942.28 569.415 C 946.743 574.089 953.034 577.002 960 577.002 C 973.522 577.002 984.5 566.024 984.5 552.502 C 984.5 546.824 982.564 541.595 979.317 537.438 L 981.18 535.83 L 976.722 534.602 L 976.722 534.602 C 972.342 530.509 966.462 528.002 960 528.002 C 958.209 528.002 956.463 528.195 954.782 528.56 L 558.916 419.54 C 558.972 418.869 559 418.19 559 417.504 C 559 416.069 558.876 414.663 558.639 413.295 L 1251.327 333.511 C 1252.573 341.063 1257.278 347.455 1263.758 351.004 L 1061.759 797.568 C 1059.367 795.342 1056.531 793.587 1053.398 792.454 L 1023.156 353.865 C 1035.465 352.572 1045.071 342.149 1045.071 329.5 C 1045.071 315.978 1034.093 305 1020.571 305 C 1014.135 305 1008.276 307.487 1003.902 311.552 L 1002.91 307.02 L 1000.46 307.56 L 1000.46 307.56 L 566.93 402.59 L 1110.32 160.04 L 1251.603 324.08 C 1251.278 325.517 1251.079 327.002 1251.019 328.522 L 570.79 406.86 L 1001.54 312.44 L 1003.394 312.037 C 1000.454 314.93 998.24 318.558 997.051 322.622 L 719.03 261.598 Z  M 514.261 431.308 C 511.818 427.734 510.296 423.481 510.039 418.893 L 473.21 423.14 L 510.122 415.045 L 510.122 415.045 C 511.357 402.676 521.808 393.004 534.5 393.004 C 535.843 393.004 537.16 393.112 538.444 393.321 L 634.56 136.48 L 576.69 134.17 L 659.89 83.06 L 641.67 131.76 L 1211.66 154.56 L 1278.275 305.156 C 1290.492 306.536 1300 316.916 1300 329.5 C 1300 334.844 1298.286 339.79 1295.377 343.819 L 1446.04 684.42 L 1558.35 647.86 L 1638.06 557.91 L 1642.69 620.42 L 1734.23 590.62 L 1736.6 589.85 L 1738.15 594.6 L 1735.77 595.38 L 1643.07 625.55 L 1674.64 1051.75 L 1377.71 1151.79 L 1582.89 1006.14 L 1471.23 753.73 L 1348.999 891.683 C 1348.909 904.062 1339.617 914.271 1327.629 915.802 L 1325.46 918.25 L 1321.635 915.834 C 1318.866 915.511 1316.237 914.725 1313.828 913.556 L 1112.08 1251.07 L 455.41 1006.84 L 1021.606 822.563 C 1021.151 821.051 1020.838 819.477 1020.683 817.858 L 314.25 644.41 L 514.261 431.308 Z  M 1309.575 910.925 C 1307.285 909.162 1305.314 907.003 1303.766 904.551 L 1259.21 876.42 L 1065.592 828.882 L 1065.592 828.882 C 1061.216 835.575 1053.656 840 1045.071 840 C 1035.782 840 1027.693 834.819 1023.539 827.191 L 1023.539 827.191 L 470.59 1007.16 L 1109.92 1244.93 L 1309.575 910.925 Z  M 1069.36 812.273 C 1069.499 813.329 1069.571 814.406 1069.571 815.5 C 1069.571 818.603 1068.993 821.573 1067.938 824.306 L 1245.86 867.99 L 1127.58 793.33 L 1069.36 812.273 L 1069.36 812.273 Z  M 1253.528 318.655 C 1257.152 311.334 1264.327 306.079 1272.796 305.148 L 1208.34 159.44 L 1113.12 155.63 L 1113.12 155.63 L 1253.528 318.655 Z  M 636.41 131.55 L 650.11 94.94 L 593.31 129.83 L 636.41 131.55 L 636.41 131.55 Z  M 1638.17 627.14 L 1561.19 652.2 L 1474.88 749.61 L 1589.11 1007.86 L 1408.29 1136.21 L 1669.36 1048.25 L 1638.17 627.14 L 1638.17 627.14 Z  M 1448.07 689.02 L 1472.65 744.59 L 1551.81 655.25 L 1448.07 689.02 L 1448.07 689.02 Z  M 1567.74 644.81 L 1637.79 622.01 L 1633.94 570.09 L 1567.74 644.81 L 1567.74 644.81 Z " fill-rule="evenodd" fill="rgb(255,255,255)"/></g></g><g style="opacity:0.23;"/><g style="isolation:isolate"><path d=" M 615.5 394.711 L 694.618 394.711 L 694.618 652.578 L 890.949 652.578 L 838.204 755.139 L 615.5 755.139 L 615.5 394.711 Z " fill="rgb(255,255,255)"/><path d=" M 929.044 394.711 L 1011.092 394.711 L 1011.092 755.139 L 929.044 755.139 L 929.044 394.711 Z " fill="rgb(255,255,255)"/><path d=" M 1034.535 755.139 L 1140.026 755.139 L 1251.378 544.157 L 1309.984 661.369 L 1207.423 661.369 L 1157.608 761 L 1456.5 761 C 1342.804 504.598 1305.888 376.486 1251.378 394.711 C 1198.695 395.067 1164.055 516.319 1034.535 755.139 Z " fill="rgb(255,255,255)"/></g></g></svg>