<?xml version="1.0" encoding="UTF-8" standalone="no"?><!-- Generator: Gravit.io --><svg xmlns="http://www.w3.org/2000/svg" xmlns:xlink="http://www.w3.org/1999/xlink" style="isolation:isolate" viewBox="0 0 1920 900" width="1920pt" height="900pt"><defs><clipPath id="_clipPath_SEKpnAimZz1uHxnDAWjoymeSKQe7tg2B"><rect width="1920" height="900"/></clipPath></defs><g clip-path="url(#_clipPath_SEKpnAimZz1uHxnDAWjoymeSKQe7tg2B)"><path d=" M 26.073 45.24 L 242.755 45.24 L 242.755 604.275 C 242.755 616.969 253.061 627.275 265.755 627.275 L 578.949 627.275 L 459.898 858.766 L 68.073 858.766 C 44.893 858.766 26.073 839.946 26.073 816.766 L 26.073 45.24 L 26.073 45.24 Z " fill="rgb(255,255,255)"/><path d=" M 664.933 45.24 L 888.594 45.24 L 888.594 858.766 L 664.933 858.766 L 664.933 45.24 L 664.933 45.24 L 664.933 45.24 Z " fill="rgb(255,255,255)"/><path d=" M 941.506 858.766 L 1179.611 858.766 L 1409.474 423.238 C 1421.324 400.785 1440.163 400.992 1451.517 423.7 L 1548.467 617.601 C 1556.612 633.891 1548.438 647.117 1530.225 647.117 L 1360.121 647.117 L 1242.752 858.766 L 1893.927 858.766 Q 1805.755 659.924 1474.826 67.328 C 1450.607 23.96 1411.015 23.809 1386.467 66.991 Q 1048.219 661.999 941.506 858.766 Z " fill="rgb(255,255,255)"/></g></svg>