<?xml version="1.0" encoding="UTF-8" standalone="no"?><!-- Generator: Gravit.io --><svg xmlns="http://www.w3.org/2000/svg" xmlns:xlink="http://www.w3.org/1999/xlink" style="isolation:isolate" viewBox="0 0 1920 1280" width="1920pt" height="1280pt"><defs><clipPath id="_clipPath_ap5l7X7aVcvat6Wyiiq5GoqbKCyEf46Q"><rect width="1920" height="1280"/></clipPath></defs><g clip-path="url(#_clipPath_ap5l7X7aVcvat6Wyiiq5GoqbKCyEf46Q)"><clipPath id="_clipPath_UiLBemj4DBQLXki8vQFvHSqaw7XhjAhY"><rect x="0" y="0" width="1920" height="1280" transform="matrix(1,0,0,1,0,0)" fill="rgb(255,255,255)"/></clipPath><g clip-path="url(#_clipPath_UiLBemj4DBQLXki8vQFvHSqaw7XhjAhY)"><g><path d=" M 159.123 292.903 L 344.936 292.903 L 344.936 792.02 L 633.235 792.02 L 531.144 990.532 L 159.123 990.532 L 159.123 292.903 L 159.123 292.903 Z " fill="rgb(255,255,255)"/><path d=" M 706.969 292.903 L 898.767 292.903 L 898.767 990.532 L 706.969 990.532 L 706.969 292.903 L 706.969 292.903 Z " fill="rgb(255,255,255)"/><path d=" M 944.141 990.532 L 1148.325 990.532 L 1363.853 582.164 L 1477.288 809.035 L 1303.119 809.035 L 1202.47 990.532 L 1760.877 990.532 C 1540.812 494.252 1469.359 257.629 1363.853 292.903 C 1261.881 293.592 1194.834 528.282 944.141 990.532 Z " fill="rgb(255,255,255)"/></g></g></g></svg>