<?xml version="1.0" encoding="UTF-8" standalone="no"?><!-- Generator: Gravit.io --><svg xmlns="http://www.w3.org/2000/svg" xmlns:xlink="http://www.w3.org/1999/xlink" style="isolation:isolate" viewBox="0 0 512 512" width="512pt" height="512pt"><defs><clipPath id="_clipPath_XyjxVFMDV39n6iRq6jt2aaPj87XUAw2P"><rect width="512" height="512"/></clipPath></defs><g clip-path="url(#_clipPath_XyjxVFMDV39n6iRq6jt2aaPj87XUAw2P)"><linearGradient id="_lgradient_3" x1="0.1464466094067262" y1="0.14644660940672627" x2="0.8535533905932737" y2="0.8535533905932737" gradientTransform="matrix(439,0,0,439,31,36.5)" gradientUnits="userSpaceOnUse"><stop offset="0.43478260869565216%" stop-opacity="1" style="stop-color:rgb(255,0,247)"/><stop offset="98.69565217391305%" stop-opacity="1" style="stop-color:rgb(15,89,236)"/></linearGradient><path d=" M 250.5 36.5 C 129.464 36.5 31 134.964 31 256 C 31 377.036 129.464 475.5 250.5 475.5 C 371.536 475.5 470 377.036 470 256 C 470 134.964 371.536 36.5 250.5 36.5 Z  M 250.5 73.083 C 253.793 73.083 258.786 75.095 265.371 82.796 C 271.938 90.515 278.651 103.173 284.797 119.965 C 287.65 127.83 290.449 136.812 292.809 146.25 L 208.21 146.25 C 210.551 136.812 213.331 127.812 216.203 119.947 C 222.349 103.173 229.062 90.515 235.647 82.815 C 242.196 75.059 247.207 73.083 250.5 73.083 Z  M 192.186 82.229 C 188.125 89.875 184.613 98.308 181.339 107.38 C 177.041 119.178 173.62 132.312 170.474 146.25 L 104.167 146.25 C 126.352 116.487 157.052 94.161 192.204 82.229 L 192.186 82.229 Z  M 308.814 82.229 C 343.959 94.165 374.653 116.49 396.833 146.25 L 330.526 146.25 C 327.38 132.312 323.941 119.178 319.661 107.38 C 316.368 98.308 312.893 89.875 308.814 82.229 Z  M 82.454 182.833 L 164.182 182.833 C 161.822 200.21 160.176 218.63 159.609 237.708 L 68.717 237.708 C 70.413 218.815 75.041 200.302 82.436 182.833 L 82.454 182.833 Z  M 201.35 182.833 L 299.65 182.833 C 302.229 199.991 304.095 218.411 304.808 237.708 L 196.174 237.708 C 196.905 218.411 198.735 199.973 201.314 182.833 L 201.35 182.833 Z  M 336.818 182.833 L 418.546 182.833 C 425.917 199.918 430.417 218.411 432.264 237.708 L 341.41 237.708 C 340.845 219.349 339.318 201.033 336.837 182.833 L 336.818 182.833 Z  M 68.717 274.292 L 159.627 274.292 C 160.176 293.37 161.822 311.79 164.2 329.167 L 82.436 329.167 C 75.041 311.698 70.413 293.185 68.717 274.292 Z  M 196.21 274.292 L 304.808 274.292 C 304.111 292.665 302.389 310.985 299.65 329.167 L 201.332 329.167 C 198.605 310.985 196.895 292.664 196.21 274.292 L 196.21 274.292 Z  M 341.391 274.292 L 432.264 274.292 C 430.569 293.185 425.941 311.698 418.546 329.167 L 336.837 329.167 C 339.196 311.79 340.824 293.37 341.41 274.292 L 341.391 274.292 Z  M 104.167 365.75 L 170.474 365.75 C 173.62 379.688 177.059 392.822 181.339 404.62 C 184.632 413.692 188.107 422.125 192.204 429.771 C 157.052 417.839 126.352 395.513 104.167 365.75 Z  M 208.21 365.75 L 292.79 365.75 C 290.576 374.648 287.908 383.428 284.797 392.053 C 278.651 408.827 271.938 421.485 265.353 429.186 C 258.786 436.923 253.792 438.917 250.5 438.917 C 247.207 438.917 242.214 436.905 235.629 429.204 C 229.062 421.485 222.349 408.827 216.203 392.035 C 213.35 384.17 210.551 375.189 208.191 365.75 L 208.21 365.75 Z  M 330.526 365.75 L 396.833 365.75 C 374.648 395.513 343.948 417.839 308.796 429.771 C 312.875 422.125 316.387 413.692 319.661 404.62 C 323.959 392.822 327.38 379.688 330.526 365.75 Z " fill="url(#_lgradient_3)"/></g></svg>