<?xml version="1.0" encoding="UTF-8" standalone="no"?><!-- Generator: Gravit.io --><svg xmlns="http://www.w3.org/2000/svg" xmlns:xlink="http://www.w3.org/1999/xlink" style="isolation:isolate" viewBox="0 0 512 512" width="512pt" height="512pt"><defs><clipPath id="_clipPath_zhStFvN5pTvOYulIeSSVlZzc48ct0N6Y"><rect width="512" height="512"/></clipPath></defs><g clip-path="url(#_clipPath_zhStFvN5pTvOYulIeSSVlZzc48ct0N6Y)"><rect width="512" height="512" style="fill:rgb(0,0,0)" fill-opacity="0"/><g><path d=" M 305.461 400.948 L 280.809 404.456 L 284.332 429.122 L 308.975 425.58 L 305.461 400.948 Z " fill="rgb(255,255,255)"/><path d=" M 284.333 429.122 L 259.693 432.621 L 263.189 457.253 L 287.845 453.761 L 284.333 429.122 Z " fill="rgb(255,255,255)"/><path d=" M 252.486 383.222 L 227.867 386.719 L 242.05 485.401 L 266.696 481.92 L 252.486 383.222 Z " fill="rgb(255,255,255)"/><path d=" M 327.336 371.823 L 302.679 375.327 L 306.173 399.957 L 330.82 396.449 L 327.336 371.823 Z " fill="rgb(255,255,255)"/><path d=" M 349.234 342.617 L 324.604 346.105 L 328.107 370.754 L 352.77 367.247 L 349.234 342.617 Z " fill="rgb(255,255,255)"/><path d=" M 371.148 313.405 L 346.501 316.923 L 349.995 341.569 L 374.64 338.061 L 371.148 313.405 Z " fill="rgb(255,255,255)"/><path d=" M 392.738 284.592 L 368.105 288.114 L 371.606 312.793 L 396.256 309.26 L 392.738 284.592 Z " fill="rgb(255,255,255)"/><path d=" M 191.683 314.924 L 167.029 318.428 L 170.549 343.077 L 195.217 339.57 L 191.683 314.924 Z " fill="rgb(255,255,255)"/><path d=" M 416.97 281.536 L 413.45 256.901 L 132.645 298.876 L 136.176 323.516 L 416.97 281.536 Z " fill="rgb(255,255,255)"/><path d=" M 220.225 335.974 L 195.608 339.518 L 206.823 414.652 L 231.455 411.154 L 220.225 335.974 Z " fill="rgb(255,255,255)"/><path d=" M 131.81 427.631 L 81.226 434.838 L 88.433 485.435 L 139.026 478.22 L 131.81 427.631 Z " fill="rgb(255,255,255)"/><path d=" M 178.059 393.24 L 127.488 400.456 L 134.686 451.035 L 185.274 443.837 L 178.059 393.24 Z " fill="rgb(255,255,255)"/><path d=" M 224.52 360.641 L 173.94 367.922 L 181.144 418.475 L 231.729 411.256 L 224.52 360.641 Z " fill="rgb(255,255,255)"/><path d=" M 327.658 43.424 L 299.64 57.516 L 285.547 29.52 L 313.543 15.428 L 327.658 43.424 Z " fill="rgb(255,255,255)"/><path d=" M 193.624 271.702 L 215.821 277.01 L 247.585 181.357 L 318.782 206.695 L 304.245 250.293 L 324.825 260.108 L 350.25 190.354 L 300.476 171.348 L 311.897 138.874 L 359.712 154.57 L 368.675 132.178 L 319.423 115.156 L 334.469 74.225 L 268.231 50.112 L 173.244 94.252 L 182.872 117.475 L 254.704 83.079 L 193.624 271.702 Z " fill="rgb(255,255,255)"/></g></g></svg>