<?xml version="1.0" encoding="UTF-8" standalone="no"?><!-- Generator: Gravit.io --><svg xmlns="http://www.w3.org/2000/svg" xmlns:xlink="http://www.w3.org/1999/xlink" style="isolation:isolate" viewBox="0 0 512 512" width="512pt" height="512pt"><defs><clipPath id="_clipPath_HsibmsCOKEDqRetKxJVLZgILQ6G5lR95"><rect width="512" height="512"/></clipPath></defs><g clip-path="url(#_clipPath_HsibmsCOKEDqRetKxJVLZgILQ6G5lR95)"><path d=" M 256.091 0.053 C 153.659 0.038 61.083 61.096 20.766 155.259 L 17.575 156.317 L 18.812 160.029 C -34.271 290.952 28.829 440.118 159.752 493.202 C 190.33 505.6 223.018 511.965 256.015 511.947 C 397.37 511.968 511.979 397.393 512 256.038 C 512.021 114.683 397.447 0.074 256.091 0.053 Z  M 456.852 385.044 L 443.709 371.91 L 443.709 341.316 C 443.724 339.995 443.432 338.69 442.856 337.502 L 409.583 271.05 L 409.583 238.937 C 409.583 236.085 408.159 233.421 405.786 231.839 L 380.192 214.776 C 378.186 213.436 375.706 213.008 373.366 213.598 L 342.022 221.43 L 289.373 198.839 L 282.13 148.093 L 302.205 128.027 L 345.298 128.027 L 359.801 149.825 C 361.111 151.785 363.174 153.117 365.5 153.502 L 416.69 162.033 C 418.061 162.264 419.467 162.152 420.785 161.709 L 467.93 145.994 C 507.473 221.877 503.243 313.144 456.852 385.044 Z  M 421.664 84.123 L 407.791 93.371 L 369.118 85.633 L 344.026 77.281 C 342.491 76.759 340.838 76.693 339.266 77.093 L 307.546 85.019 L 293.639 80.386 L 303.945 59.774 L 332.799 59.774 C 334.122 59.775 335.428 59.469 336.613 58.878 L 366.132 44.119 C 386.46 54.73 405.161 68.201 421.664 84.123 Z  M 162.569 36.167 L 183.045 49.818 C 184.051 50.488 185.188 50.936 186.38 51.132 L 227.724 58.025 L 223.689 70.097 L 202.147 77.289 C 200.217 77.931 198.58 79.241 197.531 80.984 L 173.028 121.816 L 133.672 145.431 L 75.658 153.715 C 71.453 154.309 68.326 157.906 68.321 162.153 L 68.321 187.748 C 68.321 190.011 69.221 192.18 70.82 193.779 L 85.384 208.343 L 85.384 223 L 49.893 199.333 L 37.018 160.711 C 61.513 104.744 106.407 60.209 162.569 36.167 Z  M 138.279 315.892 L 99.717 308.17 L 85.384 279.581 L 85.384 259.532 L 117.172 227.743 L 128.937 251.282 C 130.382 254.174 133.34 256.001 136.573 256 L 191.465 256 L 214.577 294.52 C 216.119 297.087 218.894 298.657 221.889 298.658 L 245.606 298.658 L 239.634 328.578 L 207.334 360.878 C 205.731 362.477 204.829 364.646 204.826 366.91 L 204.826 388.239 L 174.112 411.274 C 171.964 412.886 170.699 415.414 170.699 418.1 L 170.699 448.916 L 160.086 445.401 L 145.105 407.93 L 145.105 324.252 C 145.106 320.198 142.252 316.702 138.279 315.892 Z  M 112.634 447.044 C 32.193 386.695 -1.826 282.422 27.548 186.246 L 34.638 207.507 C 35.235 209.306 36.415 210.855 37.991 211.909 L 80.521 240.259 L 70.82 249.968 C 69.221 251.568 68.321 253.737 68.321 256 L 68.321 281.595 C 68.32 282.918 68.626 284.223 69.217 285.408 L 86.28 319.535 C 87.461 321.891 89.666 323.57 92.252 324.082 L 128.084 331.24 L 128.084 409.568 C 128.083 410.652 128.289 411.726 128.69 412.733 L 145.753 455.391 C 146.687 457.721 148.601 459.522 150.983 460.314 L 176.578 468.845 C 177.433 469.135 178.329 469.285 179.231 469.289 C 183.942 469.289 187.762 465.469 187.762 460.757 L 187.762 422.365 L 218.476 399.33 C 220.624 397.719 221.889 395.19 221.889 392.505 L 221.889 370.442 L 253.515 338.816 C 254.704 337.625 255.515 336.107 255.844 334.456 L 264.376 291.798 C 265.299 287.178 262.303 282.684 257.682 281.76 C 257.133 281.65 256.575 281.595 256.015 281.595 L 226.718 281.595 L 203.606 243.075 C 202.064 240.508 199.289 238.938 196.294 238.937 L 141.846 238.937 L 127.188 209.529 C 125.961 207.074 123.628 205.359 120.918 204.922 C 118.209 204.453 115.444 205.347 113.521 207.31 L 102.447 218.342 L 102.447 204.811 C 102.447 202.548 101.547 200.379 99.947 198.779 L 85.384 184.215 L 85.384 169.55 L 137.785 162.068 C 138.91 161.904 139.992 161.518 140.967 160.933 L 183.625 135.338 C 184.821 134.619 185.824 133.617 186.542 132.42 L 210.516 92.467 L 233.116 84.925 C 235.668 84.088 237.671 82.086 238.508 79.533 L 247.04 53.939 C 248.518 49.465 246.09 44.639 241.616 43.161 C 241.203 43.025 240.78 42.92 240.351 42.848 L 190.97 34.615 L 182.294 28.83 C 235.982 11.356 294.131 13.518 346.373 34.93 L 330.785 42.711 L 298.673 42.711 C 295.423 42.693 292.447 44.523 290.994 47.429 L 273.931 81.555 C 271.829 85.772 273.543 90.895 277.76 92.997 C 278.119 93.176 278.49 93.33 278.871 93.457 L 304.466 101.988 C 306.001 102.51 307.654 102.576 309.226 102.176 L 340.947 94.25 L 364.187 101.988 C 364.519 102.108 364.862 102.2 365.21 102.261 L 407.868 110.793 C 410.086 111.245 412.394 110.791 414.275 109.53 L 433.693 96.579 C 443.25 107.224 451.838 118.698 459.356 130.868 L 417.381 144.859 L 371.933 137.283 L 356.918 114.76 C 355.344 112.4 352.699 110.977 349.862 110.964 L 298.673 110.964 C 296.41 110.964 294.241 111.864 292.641 113.463 L 267.046 139.058 C 265.146 140.957 264.251 143.642 264.632 146.301 L 273.163 206.022 C 273.593 208.975 275.534 211.489 278.282 212.651 L 338.003 238.246 C 339.714 238.987 341.623 239.14 343.429 238.681 L 373.895 231.062 L 392.52 243.501 L 392.52 273.063 C 392.505 274.383 392.797 275.689 393.373 276.877 L 426.646 343.329 L 426.646 375.442 C 426.646 377.705 427.546 379.874 429.146 381.474 L 446.994 399.33 C 367.839 504.837 218.14 526.2 112.634 447.044 Z " fill="rgb(255,255,255)"/></g></svg>