<?xml version="1.0" encoding="UTF-8" standalone="no"?><!-- Generator: Gravit.io --><svg xmlns="http://www.w3.org/2000/svg" xmlns:xlink="http://www.w3.org/1999/xlink" style="isolation:isolate" viewBox="0 0 512 512" width="512pt" height="512pt"><defs><clipPath id="_clipPath_g1hl5LFKPgsOBHi2Fj1XLb0qA16dEoN2"><rect width="512" height="512"/></clipPath></defs><g clip-path="url(#_clipPath_g1hl5LFKPgsOBHi2Fj1XLb0qA16dEoN2)"><clipPath id="_clipPath_K3TK88uVRZZlwotcmJyIkogYbW75cA5W"><rect x="0" y="0" width="512" height="512" transform="matrix(1,0,0,1,0,0)" fill="rgb(255,255,255)"/></clipPath><g clip-path="url(#_clipPath_K3TK88uVRZZlwotcmJyIkogYbW75cA5W)"><g><path d=" M 311.226 51.01 C 314.191 43.985 322.315 40.681 329.336 43.644 C 336.356 46.608 339.655 54.734 336.69 61.759 C 326.885 84.986 324.077 91.638 323.387 93.272 C 323.228 93.649 323.179 93.764 323.186 93.748 C 322.878 94.478 322.147 96.208 320.557 99.976 L 295.093 89.227 L 311.226 51.01 L 311.226 51.01 L 311.226 51.01 Z  M 309.122 411.355 C 306.155 418.378 298.031 421.683 291.01 418.719 L 255.094 403.558 C 260.465 401.069 265.626 398.092 270.497 394.629 C 285.156 384.206 296.603 369.938 303.599 353.364 L 305.168 349.647 C 308.138 342.611 304.845 334.501 297.814 331.533 C 290.782 328.565 282.674 331.862 279.704 338.898 L 278.135 342.615 C 269.518 363.028 252.102 377.682 231.152 382.844 L 254.24 328.149 C 257.21 321.113 253.918 313.003 246.886 310.035 C 239.855 307.066 231.747 310.364 228.777 317.4 L 205.688 372.095 C 194.774 353.483 193.127 330.781 201.744 310.368 L 203.313 306.651 C 206.283 299.615 202.99 291.505 195.959 288.536 C 188.927 285.568 180.819 288.866 177.849 295.901 L 176.28 299.619 C 169.284 316.192 167.043 334.347 169.8 352.121 C 170.716 358.027 172.182 363.802 174.145 369.386 L 138.229 354.225 C 131.209 351.262 127.91 343.136 130.875 336.111 C 138.476 318.105 180.865 217.689 190.03 195.976 L 368.277 271.219 L 309.122 411.355 L 309.122 411.355 L 309.122 411.355 L 309.122 411.355 Z  M 391.57 144.964 C 394.535 137.939 402.659 134.635 409.68 137.599 C 416.7 140.563 419.999 148.688 417.034 155.713 L 400.9 193.932 L 375.437 183.183 L 391.57 144.964 L 391.57 144.964 L 391.57 144.964 Z  M 364.681 208.662 L 390.145 219.411 L 379.031 245.739 L 353.567 234.99 L 364.681 208.662 L 364.681 208.662 L 364.681 208.662 Z  M 351.398 97.987 C 354.363 90.962 362.487 87.658 369.508 90.622 C 376.528 93.585 379.827 101.711 376.862 108.736 L 360.728 146.955 L 335.265 136.205 L 351.398 97.987 L 351.398 97.987 L 351.398 97.987 Z  M 324.509 161.685 L 349.973 172.434 C 347.699 177.821 330.64 218.231 328.103 224.241 L 302.639 213.492 C 306.32 204.774 322.092 167.411 324.509 161.685 L 324.509 161.685 L 324.509 161.685 Z  M 128.959 269.575 L 95.42 186.966 C 91.107 176.341 96.206 164.266 106.827 159.945 C 117.416 155.639 129.53 160.752 133.83 171.344 L 151.771 215.534 L 128.959 269.575 L 128.959 269.575 L 128.959 269.575 L 128.959 269.575 Z  M 284.337 114.707 L 309.801 125.456 C 306.46 133.369 280.731 194.32 277.176 202.743 L 251.712 191.994 L 284.337 114.707 L 284.337 114.707 L 284.337 114.707 Z  M 249.543 54.991 C 252.508 47.966 260.632 44.662 267.652 47.625 C 274.673 50.589 277.972 58.715 275.007 65.74 L 258.873 103.958 L 233.409 93.209 L 249.543 54.991 L 249.543 54.991 L 249.543 54.991 Z  M 222.654 118.688 L 248.118 129.437 L 226.248 181.245 L 200.784 170.496 L 222.654 118.688 L 222.654 118.688 L 222.654 118.688 Z  M 256.409 465.152 L 129.09 411.407 L 140.204 385.078 L 203.789 411.919 C 203.8 411.924 203.811 411.93 203.822 411.934 C 203.832 411.939 203.842 411.945 203.852 411.949 C 203.855 411.95 203.859 411.952 203.862 411.953 C 203.866 411.955 203.869 411.956 203.872 411.958 C 203.883 411.962 203.893 411.965 203.904 411.969 C 203.915 411.973 203.927 411.978 203.938 411.982 L 267.523 438.823 L 256.409 465.152 L 256.409 465.152 L 256.409 465.152 L 256.409 465.152 Z  M 420.435 112.12 C 415.468 110.023 410.317 108.972 405.229 108.867 C 407.668 90.64 397.683 72.496 380.263 65.143 C 375.293 63.044 370.138 62.006 365.045 61.901 C 367.473 43.818 357.681 25.59 340.091 18.165 C 322.506 10.742 302.612 16.428 291.346 30.774 C 287.721 27.201 283.375 24.243 278.408 22.146 C 257.347 13.256 232.975 23.168 224.079 44.241 L 166.981 179.502 L 159.441 160.929 C 149.405 136.21 121.139 124.278 96.427 134.328 C 71.65 144.404 59.747 172.597 69.81 197.381 L 113.749 305.606 L 105.409 325.361 C 98.399 341.969 103.066 360.623 115.665 372.138 L 98.248 413.397 C 95.278 420.433 98.571 428.543 105.602 431.511 L 258.385 496.006 C 265.416 498.974 273.525 495.676 276.495 488.641 L 293.912 447.381 C 310.951 448.378 327.573 438.711 334.584 422.103 L 442.498 166.462 C 451.393 145.388 441.497 121.011 420.435 112.12 L 420.435 112.12 L 420.435 112.12 Z  M 199.363 244.944 C 202.331 237.913 210.445 234.613 217.472 237.579 C 224.499 240.546 227.794 248.662 224.826 255.693 C 221.858 262.725 213.744 266.025 206.717 263.058 C 199.69 260.092 196.395 251.975 199.363 244.944 L 199.363 244.944 L 199.363 244.944 L 199.363 244.944 Z  M 250.29 266.442 C 253.258 259.411 261.373 256.111 268.4 259.077 C 275.427 262.044 278.722 270.16 275.754 277.191 C 272.786 284.223 264.671 287.523 257.644 284.557 C 250.617 281.59 247.322 273.474 250.29 266.442 L 250.29 266.442 L 250.29 266.442 L 250.29 266.442 Z  M 301.218 287.941 C 304.186 280.909 312.301 277.609 319.327 280.575 C 326.354 283.542 329.65 291.658 326.682 298.69 C 323.714 305.721 315.599 309.021 308.572 306.055 C 301.545 303.088 298.25 294.972 301.218 287.941 L 301.218 287.941 L 301.218 287.941 Z " fill-rule="evenodd" fill="rgb(255,255,255)"/></g></g></g></svg>