<?xml version="1.0" encoding="UTF-8" standalone="no"?><!-- Generator: Gravit.io --><svg xmlns="http://www.w3.org/2000/svg" xmlns:xlink="http://www.w3.org/1999/xlink" style="isolation:isolate" viewBox="0 0 512 512" width="512pt" height="512pt"><defs><clipPath id="_clipPath_iDr6zmSIHxzkREHbTwefttabC7PAWhCz"><rect width="512" height="512"/></clipPath></defs><g clip-path="url(#_clipPath_iDr6zmSIHxzkREHbTwefttabC7PAWhCz)"><path d=" M 362.716 469.311 L 347.977 461.941 C 341.405 458.655 334.047 456.918 326.699 456.918 L 319.612 456.918 L 319.612 439.853 L 321.129 439.853 C 333.501 439.853 343.817 430.182 344.612 417.836 L 359.378 188.967 C 368.999 184.669 375.725 175.015 375.725 163.814 C 375.725 148.628 363.371 136.274 348.185 136.274 L 319.612 136.274 L 319.612 103.177 L 320.128 103.177 C 328.684 103.177 335.644 96.216 335.644 87.66 L 335.644 15.516 C 335.644 6.96 328.684 0 320.128 0 L 304.096 0 C 295.54 0 288.58 6.96 288.58 15.516 L 288.58 16.032 L 223.42 16.032 L 223.42 15.516 C 223.419 6.96 216.459 0 207.903 0 L 191.871 0 C 183.315 0 176.355 6.96 176.355 15.516 L 176.355 87.661 C 176.355 96.217 183.315 103.178 191.871 103.178 L 192.387 103.178 L 192.387 136.275 L 163.814 136.275 C 148.628 136.275 136.274 148.629 136.274 163.815 C 136.274 175.016 142.999 184.67 152.621 188.968 L 167.387 417.837 C 168.183 430.183 178.498 439.854 190.87 439.854 L 192.387 439.854 L 192.387 456.919 L 185.3 456.919 C 177.952 456.919 170.594 458.656 164.022 461.942 L 149.283 469.312 C 141.259 473.323 136.275 481.389 136.275 490.36 L 136.275 504.5 C 136.275 508.642 139.633 512 143.775 512 L 215.92 512 C 220.062 512 223.42 508.642 223.42 504.5 C 223.42 500.358 220.062 497 215.92 497 L 202.685 497 C 205.664 492.186 207.388 486.517 207.388 480.452 L 207.388 319.612 L 231.952 319.612 C 236.094 319.612 239.452 316.254 239.452 312.112 C 239.452 307.97 236.094 304.612 231.952 304.612 L 207.388 304.612 L 207.388 280.048 C 207.388 275.906 204.03 272.548 199.888 272.548 C 195.746 272.548 192.388 275.906 192.388 280.048 L 192.388 288.58 L 174.079 288.58 L 167.807 191.355 L 192.388 191.355 L 192.388 247.987 C 192.388 252.129 195.746 255.487 199.888 255.487 C 204.03 255.487 207.388 252.129 207.388 247.987 L 207.388 183.34 L 304.613 183.34 L 304.613 304.613 L 280.049 304.613 C 275.907 304.613 272.549 307.971 272.549 312.113 C 272.549 316.255 275.907 319.613 280.049 319.613 L 304.613 319.613 L 304.613 480.452 C 304.613 486.517 306.338 492.186 309.316 497 L 296.081 497 C 291.939 497 288.581 500.358 288.581 504.5 C 288.581 508.642 291.939 512 296.081 512 L 368.226 512 C 372.368 512 375.726 508.642 375.726 504.5 L 375.726 490.36 C 375.725 481.388 370.74 473.323 362.716 469.311 Z  M 192.386 480.45 C 192.386 489.575 184.963 496.998 175.838 496.998 L 151.274 496.998 L 151.274 490.359 C 151.274 487.106 153.081 484.182 155.99 482.728 L 170.729 475.358 C 175.229 473.108 180.268 471.918 185.299 471.918 L 192.386 471.918 L 192.386 480.45 Z  M 192.387 424.853 L 190.87 424.853 C 186.384 424.853 182.644 421.347 182.355 416.871 L 177.115 335.644 L 192.387 335.644 L 192.387 424.853 Z  M 192.387 303.58 L 192.387 320.645 L 176.147 320.645 L 175.046 303.58 L 192.387 303.58 Z  M 192.387 176.354 L 163.814 176.354 C 156.899 176.354 151.274 170.729 151.274 163.814 C 151.274 156.899 156.899 151.274 163.814 151.274 L 192.387 151.274 L 192.387 176.354 Z  M 329.644 416.871 C 329.355 421.348 325.615 424.853 321.129 424.853 L 319.612 424.853 L 319.612 335.644 L 334.884 335.644 L 329.644 416.871 Z  M 335.852 320.645 L 319.612 320.645 L 319.612 303.58 L 336.953 303.58 L 335.852 320.645 Z  M 348.185 151.274 C 355.1 151.274 360.725 156.899 360.725 163.814 C 360.725 170.729 355.1 176.354 348.185 176.354 L 319.612 176.354 L 319.612 151.274 L 348.185 151.274 Z  M 191.871 88.178 C 191.586 88.178 191.355 87.946 191.355 87.661 L 191.355 15.516 C 191.355 15.231 191.586 15 191.871 15 L 207.903 15 C 208.188 15 208.419 15.231 208.419 15.516 L 208.419 87.661 C 208.419 87.946 208.188 88.178 207.903 88.178 L 191.871 88.178 Z  M 304.611 143.707 C 304.611 143.73 304.608 143.752 304.608 143.775 C 304.608 143.797 304.611 143.82 304.611 143.842 L 304.611 168.339 L 207.387 168.339 L 207.387 151.275 L 280.047 151.275 C 284.189 151.275 287.547 147.917 287.547 143.775 C 287.547 139.632 284.189 136.275 280.047 136.275 L 207.387 136.275 L 207.387 103.178 L 207.903 103.178 C 216.459 103.178 223.419 96.217 223.419 87.661 L 223.419 31.032 L 288.579 31.032 L 288.579 87.661 C 288.579 96.217 295.539 103.178 304.095 103.178 L 304.611 103.178 L 304.611 143.707 Z  M 304.096 88.178 C 303.811 88.178 303.58 87.947 303.58 87.661 L 303.58 15.516 C 303.58 15.231 303.811 15 304.096 15 L 320.128 15 C 320.413 15 320.644 15.231 320.644 15.516 L 320.644 87.661 C 320.644 87.946 320.413 88.178 320.128 88.178 L 304.096 88.178 Z  M 319.611 191.355 L 344.192 191.355 L 337.92 288.58 L 319.611 288.58 L 319.611 191.355 Z  M 360.725 496.999 L 360.725 496.999 L 336.161 496.999 C 327.036 496.999 319.613 489.575 319.613 480.451 L 319.613 471.919 L 326.7 471.919 C 331.731 471.919 336.77 473.108 341.27 475.359 L 356.009 482.729 C 358.918 484.183 360.725 487.108 360.725 490.36 L 360.725 496.999 L 360.725 496.999 Z " fill="rgb(255,255,255)"/></g></svg>