<?xml version="1.0" encoding="UTF-8" standalone="no"?><!-- Generator: Gravit.io --><svg xmlns="http://www.w3.org/2000/svg" xmlns:xlink="http://www.w3.org/1999/xlink" style="isolation:isolate" viewBox="0 0 512 512" width="512pt" height="512pt"><defs><clipPath id="_clipPath_5m75L62sHQYwfAMHDpDzpdGH2fpG4gRO"><rect width="512" height="512"/></clipPath></defs><g clip-path="url(#_clipPath_5m75L62sHQYwfAMHDpDzpdGH2fpG4gRO)"><linearGradient id="_lgradient_2" x1="0.1464466094067262" y1="0.14644660940672627" x2="0.8535533905932737" y2="0.8535533905932737" gradientTransform="matrix(433.733,0,0,402.752,39.134,54.624)" gradientUnits="userSpaceOnUse"><stop offset="0%" stop-opacity="1" style="stop-color:rgb(242,255,0)"/><stop offset="99.56521739130434%" stop-opacity="1" style="stop-color:rgb(237,64,13)"/></linearGradient><path d=" M 395.414 54.624 C 352.688 54.743 318.081 89.35 317.962 132.076 C 317.962 146.947 322.454 160.765 329.704 172.63 L 257.704 240.51 L 192.458 240.51 C 184.968 204.533 153.334 178.698 116.586 178.548 C 73.86 178.667 39.253 213.274 39.134 256 C 39.134 298.599 73.987 333.452 116.586 333.452 C 153.345 333.317 184.997 307.479 192.489 271.49 L 257.704 271.49 L 330.54 338.037 C 322.365 350.48 317.994 365.036 317.962 379.924 C 317.962 422.522 352.815 457.376 395.414 457.376 C 438.013 457.376 472.866 422.522 472.866 379.924 C 472.866 337.325 438.013 302.471 395.414 302.471 C 379.428 302.471 364.433 307.304 352.103 315.793 L 286.981 256.248 L 286.981 255.287 L 350.895 195.246 C 363.597 204.076 378.839 209.529 395.414 209.529 C 438.013 209.529 472.866 174.675 472.866 132.076 C 472.866 89.478 438.013 54.624 395.414 54.624 Z  M 395.414 85.605 C 421.314 85.605 441.885 106.176 441.885 132.076 C 441.885 157.976 421.314 178.548 395.414 178.548 C 383.064 178.631 371.195 173.762 362.462 165.028 C 353.729 156.295 348.86 144.427 348.943 132.076 C 348.943 106.176 369.514 85.605 395.414 85.605 Z  M 116.586 209.529 C 142.486 209.529 163.057 230.1 163.057 256 C 163.057 281.9 142.486 302.471 116.586 302.471 C 104.236 302.555 92.367 297.685 83.634 288.952 C 74.901 280.219 70.031 268.35 70.115 256 C 70.115 230.1 90.686 209.529 116.586 209.529 Z  M 395.414 333.452 C 421.314 333.452 441.885 354.024 441.885 379.924 C 441.885 405.824 421.314 426.395 395.414 426.395 C 383.064 426.478 371.195 421.609 362.462 412.876 C 353.729 404.142 348.86 392.274 348.943 379.924 C 348.943 354.024 369.514 333.452 395.414 333.452 Z " fill="url(#_lgradient_2)"/></g></svg>