<?xml version="1.0" encoding="UTF-8" standalone="no"?><!-- Generator: Gravit.io --><svg xmlns="http://www.w3.org/2000/svg" xmlns:xlink="http://www.w3.org/1999/xlink" style="isolation:isolate" viewBox="0 0 512 512" width="512pt" height="512pt"><defs><clipPath id="_clipPath_VrUAzBCzyrW0knRIa2LnBmFJCqtWDKt8"><rect width="512" height="512"/></clipPath></defs><g clip-path="url(#_clipPath_VrUAzBCzyrW0knRIa2LnBmFJCqtWDKt8)"><linearGradient id="_lgradient_1" x1="0.1464466094067262" y1="0.14644660940672627" x2="0.8535533905932737" y2="0.8535533905932737" gradientTransform="matrix(492.182,0,0,393.5,9.909,59.25)" gradientUnits="userSpaceOnUse"><stop offset="0%" stop-opacity="1" style="stop-color:rgb(254,0,247)"/><stop offset="99.1304347826087%" stop-opacity="1" style="stop-color:rgb(15,89,236)"/></linearGradient><path d=" M 256.014 59.25 C 173.379 59.25 148.416 68.473 148.416 68.473 C 131.028 74.228 107.295 82.491 97.679 100.764 C 92.883 109.962 74.339 161.363 58.501 206.812 L 38.506 206.812 C 29.48 206.812 20.061 213.945 16.987 222.946 L 10.838 239.866 C 7.764 248.892 12.56 256 21.61 256 L 41.581 256 C 41.015 257.549 37.744 267.534 37.744 267.534 C 36.195 270.24 34.67 282.709 34.67 285.98 L 34.67 435.067 C 34.67 444.659 42.737 452.75 52.353 452.75 L 115.337 452.75 C 124.929 452.75 133.02 444.683 133.02 435.067 L 133.02 403.562 L 378.958 403.562 L 378.958 435.067 C 378.958 444.659 387.024 452.75 396.641 452.75 L 459.65 452.75 C 469.241 452.75 477.333 444.683 477.333 435.067 L 477.333 286.004 C 477.333 282.733 475.783 270.264 474.258 267.559 C 474.258 267.559 470.987 257.549 470.422 256.025 L 490.392 256.025 C 499.418 256.025 504.238 248.892 501.164 239.891 L 495.016 222.971 C 491.941 213.945 482.522 206.837 473.496 206.837 L 453.501 206.837 C 437.86 162.74 419.316 112.889 413.536 100.002 C 405.101 81.188 378.367 72.629 363.587 68.497 C 363.587 68.497 338.599 59.275 255.989 59.275 L 256.014 59.25 Z  M 256.014 95.378 C 380.999 95.378 384.073 117.365 384.368 117.66 C 388.205 129.195 403.674 164.142 415.873 213.723 C 415.873 213.723 362.849 231.406 256.014 231.406 C 149.178 231.406 96.154 213.723 96.154 213.723 C 109.115 159.937 123.06 129.195 126.134 120.734 C 128.618 114.586 131.028 95.378 256.014 95.378 Z  M 72.323 276.757 C 74.831 276.462 77.315 276.757 80.021 276.757 C 90.67 276.757 112.189 285.857 126.134 292.128 C 141.308 298.941 158.401 304.622 158.401 315.935 C 158.401 326.412 152.941 331.306 133.045 331.306 L 106.139 331.306 C 82.603 331.306 59.264 327.863 59.264 312.861 L 59.264 295.202 C 59.264 282.045 64.846 277.716 72.323 276.757 Z  M 432.006 276.757 C 442.975 276.757 452.764 277.716 452.764 295.202 L 452.764 312.861 C 452.764 327.863 429.399 331.306 405.888 331.306 L 378.982 331.306 C 359.184 331.306 353.626 326.412 353.626 315.935 C 353.626 304.622 370.719 298.965 385.893 292.128 C 399.838 285.881 421.357 276.757 432.006 276.757 Z " fill="url(#_lgradient_1)"/></g></svg>