<?xml version="1.0" encoding="UTF-8" standalone="no"?><!-- Generator: Gravit.io --><svg xmlns="http://www.w3.org/2000/svg" xmlns:xlink="http://www.w3.org/1999/xlink" style="isolation:isolate" viewBox="0 0 512 512" width="512pt" height="512pt"><defs><clipPath id="_clipPath_17nwnClPiFjlFtHOR5aIO9FDWt2U4RWa"><rect width="512" height="512"/></clipPath></defs><g clip-path="url(#_clipPath_17nwnClPiFjlFtHOR5aIO9FDWt2U4RWa)"><path d=" M 256 77.5 C 218.757 77.5 194.354 79.999 178.888 82.75 C 164.335 85.333 158.014 88.325 157.237 88.661 C 157.195 88.693 155.925 88.976 155.925 88.976 C 140.384 94.226 116.707 101.45 105.724 122.786 C 103.057 127.952 99.077 138.452 93.25 153.299 C 88.777 164.702 83.527 179.098 78.151 193 L 46.997 193 C 31.405 193 19.844 198.208 12.872 206.125 C 5.89 214.042 4 223.429 4 230.737 C 4 238.895 8.263 247.054 14.825 251.076 C 21.388 255.097 28.727 256 36.487 256 L 53.875 256 C 52.237 260.389 46.651 275.037 46.651 275.037 L 46 277 L 46 403 C 46 420.273 60.227 434.5 77.5 434.5 L 119.5 434.5 C 136.772 434.5 151 420.273 151 403 L 151 392.5 L 361 392.5 L 361 403 C 361 420.273 375.227 434.5 392.5 434.5 L 434.5 434.5 C 451.773 434.5 466 420.273 466 403 L 466 277 L 465.339 275.026 C 465.339 275.026 459.847 260.431 458.125 256 L 475.513 256 C 483.273 256 490.612 255.097 497.175 251.075 C 503.737 247.054 508 238.895 508 230.737 C 508 223.429 506.11 214.042 499.138 206.125 C 492.166 198.208 480.606 193 465.013 193 L 433.849 193 C 433.188 191.446 432.526 189.923 432.201 189.062 C 420.84 159.694 409.888 131.732 405.951 122.776 C 395.902 99.938 370.062 92.924 356.076 88.987 C 355.624 88.861 354.847 88.451 354.438 88.325 L 354.438 88.651 C 353.451 88.241 347.466 85.333 333.112 82.75 C 317.635 79.999 293.244 77.5 256 77.5 Z  M 256 98.5 C 292.256 98.5 315.556 101.251 329.5 103.75 C 343.444 106.249 346.888 108.013 346.888 108.013 L 347.875 108.338 L 348.537 108.674 C 361.326 112.318 381.958 120.728 386.589 131.312 C 389.634 138.2 401.562 168.924 412.524 196.937 C 415.149 203.626 419.527 214.535 418.089 221.224 C 417.354 224.584 416.094 226.999 411.201 229.75 C 406.318 232.501 397.131 235 382 235 L 130 235 C 114.869 235 105.682 232.501 100.799 229.75 C 95.917 226.999 94.646 224.584 93.911 221.213 C 92.473 214.536 96.851 203.626 99.476 196.937 L 98.825 196.612 C 103.624 184.096 108.548 171.139 112.612 160.838 C 118.387 146.117 123.563 134.305 124.425 132.625 C 130.242 121.306 148.417 113.588 163.8 108.338 L 164.451 108.338 L 165.112 108.023 C 165.112 108.023 168.556 106.249 182.5 103.75 C 196.444 101.251 219.744 98.5 256 98.5 Z  M 46.987 214 L 69.625 214 C 65.645 224.458 64.952 226.505 61.75 235 L 36.487 235 C 30.617 235 26.963 233.971 25.987 233.362 C 25 232.742 25 233.687 25 230.737 C 25 226.915 26.071 222.778 28.612 219.901 C 31.153 217.034 35.584 214 46.987 214 Z  M 441.714 214 L 465.024 214 C 476.416 214 480.847 217.045 483.399 219.911 C 485.929 222.778 487 226.915 487 230.727 C 487 233.687 487 232.742 486.013 233.352 C 485.037 233.981 481.383 235 475.513 235 L 449.935 235 C 446.575 226.39 445.84 224.626 441.724 214 L 441.714 214 Z  M 82.089 241.237 C 84.514 243.778 87.307 246.235 90.625 248.125 C 100.096 253.459 112.654 256 130 256 L 382 256 C 399.346 256 411.904 253.459 421.375 248.125 C 424.693 246.235 427.486 243.778 429.912 241.237 C 436.054 257.397 444.633 280.035 445 280.938 L 445 362.638 C 445 367.563 440.905 371.5 435.487 371.5 L 76.513 371.5 C 71.105 371.5 67 367.563 67 362.638 L 67 280.938 C 67.325 280.035 76.103 257.229 82.099 241.237 L 82.089 241.237 Z  M 109 266.5 C 91.727 266.5 77.5 280.728 77.5 298 C 77.5 307.314 81.354 315.598 86.687 321.3 C 92.021 327.001 98.458 330.855 104.737 334.425 C 113.63 339.465 119.71 343.318 126.724 346.237 C 133.728 349.146 141.277 350.5 151 350.5 C 174.047 350.5 193 331.6 193 308.5 C 193 285.4 174.048 266.5 151 266.5 L 109 266.5 Z  M 361 266.5 C 337.953 266.5 319 285.4 319 308.5 C 319 331.6 337.953 350.5 361 350.5 C 370.723 350.5 378.273 349.146 385.287 346.237 C 392.29 343.318 398.37 339.465 407.263 334.425 C 413.542 330.855 419.979 327.001 425.313 321.3 C 431.195 314.964 434.475 306.645 434.5 298 C 434.5 280.728 420.273 266.5 403 266.5 L 361 266.5 Z  M 109 287.5 L 151 287.5 C 162.729 287.5 172 296.772 172 308.5 C 172 320.229 162.729 329.5 151 329.5 C 143.125 329.5 139.23 328.807 134.588 326.875 C 129.969 324.943 124.172 321.3 114.911 316.05 C 109 312.721 104.653 309.571 102.101 306.862 C 99.571 304.153 98.5 302.389 98.5 298 C 98.5 292.089 103.099 287.5 109 287.5 Z  M 361 287.5 L 403 287.5 C 408.912 287.5 413.5 292.099 413.5 298 C 413.5 302.389 412.429 304.153 409.888 306.862 C 407.347 309.571 403 312.721 397.099 316.05 C 387.828 321.3 382.042 324.943 377.401 326.875 C 372.781 328.807 368.875 329.5 361 329.5 C 349.272 329.5 340 320.229 340 308.5 C 340 296.772 349.272 287.5 361 287.5 Z  M 67 390.862 C 70.045 391.839 73.195 392.5 76.513 392.5 L 130 392.5 L 130 403 C 130 408.912 125.401 413.5 119.5 413.5 L 77.5 413.5 C 71.588 413.5 67 408.901 67 403 L 67 390.862 Z  M 445 390.862 L 445 403 C 445 408.912 440.401 413.5 434.5 413.5 L 392.5 413.5 C 386.589 413.5 382 408.901 382 403 L 382 392.5 L 435.487 392.5 C 438.805 392.5 441.966 391.839 445 390.862 Z " fill="rgb(255,255,255)"/></g></svg>